  0
SECTION
  2
HEADER
  9
$ANGBASE
  50
0.0
  9
$ANGDIR
  70
1
  9
$MEASUREMENT
  70
1
  0
ENDSEC
  0
SECTION
  2
TABLES
  0
TABLE
  2
LTYPE
  70
4
  0
LTYPE
  5
40F
  2
CONTINUOUS
  70
0
  3
Solid line
  72
65
  73
0
  40
0.0
  0
LTYPE
  5
410
  2
DASHDOT
 70
0
  3
Dash Dot ____ _ ____ _
 72
65
 73
4
 40
2.0
 49
1.25
 49
-0.25
 49
0.25
 49
-0.25
  0
LTYPE
  5
411
  2
DASHED
 70
0
  3
Dashed __ __ __ __ __
 72
65
 73
2
 40
0.75
 49
0.5
 49
-0.25
  0
LTYPE
  5
43B
  2
DOTTED
 70
0
  3
Dotted .  .  .  .
 72
65
 73
2
 40
0.2
 49
0.0
 49
-0.2
  0
ENDTAB
  0
TABLE
  2
STYLE
  70
4
  0
STYLE
  2
KICAD
  70
0
  40
0
  41
1
  42
1
  50
0
  71
0
  3
isocp.shx
  0
STYLE
  2
KICADB
  70
0
  40
0
  41
1
  42
1
  50
0
  71
0
  3
isocp.shx
  0
STYLE
  2
KICADI
  70
0
  40
0
  41
1
  42
1
  50
15
  71
0
  3
isocp.shx
  0
STYLE
  2
KICADBI
  70
0
  40
0
  41
1
  42
1
  50
15
  71
0
  3
isocp.shx
  0
ENDTAB
  0
TABLE
  2
LAYER
  70
1
  0
LAYER
  2
BLACK
  70
0
  62
7
  6
CONTINUOUS
  0
ENDTAB
  0
ENDSEC
  0
SECTION
  2
ENTITIES
0
CIRCLE
8
BLACK
10
246.1999999999999886
20
-41.8142139999999998
40
1.614214
0
CIRCLE
8
BLACK
10
246.1999999999999886
20
-98.2142139999999984
40
1.614214
0
LINE
8
BLACK
6
CONTINUOUS
10
248.
20
-125.
11
248.
21
-40.
0
CIRCLE
8
BLACK
10
151.9000000000000057
20
-41.9142140000000012
40
1.614214
0
CIRCLE
8
BLACK
10
151.7857860000000016
20
-98.1999999999999886
40
1.614214
0
LINE
8
BLACK
6
CONTINUOUS
10
150.
20
-125.
11
248.
21
-125.
0
LINE
8
BLACK
6
CONTINUOUS
10
248.
20
-40.
11
150.
21
-40.
0
LINE
8
BLACK
6
CONTINUOUS
10
150.
20
-40.
11
150.
21
-125.
0
LINE
8
BLACK
6
CONTINUOUS
10
152.5577679999999816
20
-128.1648380000000031
11
152.5577679999999816
21
-126.1648379999999889
0
LINE
8
BLACK
6
CONTINUOUS
10
152.5577679999999816
20
-126.1648379999999889
11
153.0339579999999842
21
-126.1648379999999889
0
LINE
8
BLACK
6
CONTINUOUS
10
153.0339579999999842
20
-126.1648379999999889
11
153.3196729999999945
21
-126.260075999999998
0
LINE
8
BLACK
6
CONTINUOUS
10
153.3196729999999945
20
-126.260075999999998
11
153.5101489999999842
21
-126.4505519999999876
0
LINE
8
BLACK
6
CONTINUOUS
10
153.5101489999999842
20
-126.4505519999999876
11
153.605386999999979
21
-126.6410279999999915
0
LINE
8
BLACK
6
CONTINUOUS
10
153.605386999999979
20
-126.6410279999999915
11
153.7006250000000023
21
-127.0219799999999992
0
LINE
8
BLACK
6
CONTINUOUS
10
153.7006250000000023
20
-127.0219799999999992
11
153.7006250000000023
21
-127.3076949999999954
0
LINE
8
BLACK
6
CONTINUOUS
10
153.7006250000000023
20
-127.3076949999999954
11
153.605386999999979
21
-127.6886469999999889
0
LINE
8
BLACK
6
CONTINUOUS
10
153.605386999999979
20
-127.6886469999999889
11
153.5101489999999842
21
-127.8791229999999928
0
LINE
8
BLACK
6
CONTINUOUS
10
153.5101489999999842
20
-127.8791229999999928
11
153.3196729999999945
21
-128.0696000000000083
0
LINE
8
BLACK
6
CONTINUOUS
10
153.3196729999999945
20
-128.0696000000000083
11
153.0339579999999842
21
-128.1648380000000031
0
LINE
8
BLACK
6
CONTINUOUS
10
153.0339579999999842
20
-128.1648380000000031
11
152.5577679999999816
21
-128.1648380000000031
0
LINE
8
BLACK
6
CONTINUOUS
10
154.5577679999999816
20
-128.1648380000000031
11
154.5577679999999816
21
-126.8315039999999954
0
LINE
8
BLACK
6
CONTINUOUS
10
154.5577679999999816
20
-127.2124570000000006
11
154.6530060000000049
21
-127.0219799999999992
0
LINE
8
BLACK
6
CONTINUOUS
10
154.6530060000000049
20
-127.0219799999999992
11
154.7482439999999997
21
-126.9267419999999902
0
LINE
8
BLACK
6
CONTINUOUS
10
154.7482439999999997
20
-126.9267419999999902
11
154.9387199999999893
21
-126.8315039999999954
0
LINE
8
BLACK
6
CONTINUOUS
10
154.9387199999999893
20
-126.8315039999999954
11
155.1291970000000049
21
-126.8315039999999954
0
LINE
8
BLACK
6
CONTINUOUS
10
155.7958629999999971
20
-128.1648380000000031
11
155.7958629999999971
21
-126.8315039999999954
0
LINE
8
BLACK
6
CONTINUOUS
10
155.7958629999999971
20
-126.1648379999999889
11
155.7006250000000023
21
-126.260075999999998
0
LINE
8
BLACK
6
CONTINUOUS
10
155.7006250000000023
20
-126.260075999999998
11
155.7958629999999971
21
-126.3553139999999928
0
LINE
8
BLACK
6
CONTINUOUS
10
155.7958629999999971
20
-126.3553139999999928
11
155.8911009999999919
21
-126.260075999999998
0
LINE
8
BLACK
6
CONTINUOUS
10
155.8911009999999919
20
-126.260075999999998
11
155.7958629999999971
21
-126.1648379999999889
0
LINE
8
BLACK
6
CONTINUOUS
10
155.7958629999999971
20
-126.1648379999999889
11
155.7958629999999971
21
-126.3553139999999928
0
LINE
8
BLACK
6
CONTINUOUS
10
157.0339579999999842
20
-128.1648380000000031
11
156.8434819999999945
21
-128.0696000000000083
0
LINE
8
BLACK
6
CONTINUOUS
10
156.8434819999999945
20
-128.0696000000000083
11
156.7482439999999997
21
-127.8791229999999928
0
LINE
8
BLACK
6
CONTINUOUS
10
156.7482439999999997
20
-127.8791229999999928
11
156.7482439999999997
21
-126.1648379999999889
0
LINE
8
BLACK
6
CONTINUOUS
10
158.0815769999999816
20
-128.1648380000000031
11
157.8911009999999919
21
-128.0696000000000083
0
LINE
8
BLACK
6
CONTINUOUS
10
157.8911009999999919
20
-128.0696000000000083
11
157.7958629999999971
21
-127.8791229999999928
0
LINE
8
BLACK
6
CONTINUOUS
10
157.7958629999999971
20
-127.8791229999999928
11
157.7958629999999971
21
-126.1648379999999889
0
LINE
8
BLACK
6
CONTINUOUS
10
160.367291999999992
20
-128.1648380000000031
11
160.367291999999992
21
-126.1648379999999889
0
LINE
8
BLACK
6
CONTINUOUS
10
160.367291999999992
20
-126.1648379999999889
11
161.0339589999999816
21
-127.5934089999999941
0
LINE
8
BLACK
6
CONTINUOUS
10
161.0339589999999816
20
-127.5934089999999941
11
161.7006250000000023
21
-126.1648379999999889
0
LINE
8
BLACK
6
CONTINUOUS
10
161.7006250000000023
20
-126.1648379999999889
11
161.7006250000000023
21
-128.1648380000000031
0
LINE
8
BLACK
6
CONTINUOUS
10
163.5101489999999842
20
-128.1648380000000031
11
163.5101489999999842
21
-127.1172189999999915
0
LINE
8
BLACK
6
CONTINUOUS
10
163.5101489999999842
20
-127.1172189999999915
11
163.4149109999999894
21
-126.9267419999999902
0
LINE
8
BLACK
6
CONTINUOUS
10
163.4149109999999894
20
-126.9267419999999902
11
163.2244349999999997
21
-126.8315039999999954
0
LINE
8
BLACK
6
CONTINUOUS
10
163.2244349999999997
20
-126.8315039999999954
11
162.8434819999999945
21
-126.8315039999999954
0
LINE
8
BLACK
6
CONTINUOUS
10
162.8434819999999945
20
-126.8315039999999954
11
162.6530060000000049
21
-126.9267419999999902
0
LINE
8
BLACK
6
CONTINUOUS
10
163.5101489999999842
20
-128.0696000000000083
11
163.3196729999999945
21
-128.1648380000000031
0
LINE
8
BLACK
6
CONTINUOUS
10
163.3196729999999945
20
-128.1648380000000031
11
162.8434819999999945
21
-128.1648380000000031
0
LINE
8
BLACK
6
CONTINUOUS
10
162.8434819999999945
20
-128.1648380000000031
11
162.6530060000000049
21
-128.0696000000000083
0
LINE
8
BLACK
6
CONTINUOUS
10
162.6530060000000049
20
-128.0696000000000083
11
162.5577679999999816
21
-127.8791229999999928
0
LINE
8
BLACK
6
CONTINUOUS
10
162.5577679999999816
20
-127.8791229999999928
11
162.5577679999999816
21
-127.6886469999999889
0
LINE
8
BLACK
6
CONTINUOUS
10
162.5577679999999816
20
-127.6886469999999889
11
162.6530060000000049
21
-127.4981709999999993
0
LINE
8
BLACK
6
CONTINUOUS
10
162.6530060000000049
20
-127.4981709999999993
11
162.8434819999999945
21
-127.4029329999999902
0
LINE
8
BLACK
6
CONTINUOUS
10
162.8434819999999945
20
-127.4029329999999902
11
163.3196729999999945
21
-127.4029329999999902
0
LINE
8
BLACK
6
CONTINUOUS
10
163.3196729999999945
20
-127.4029329999999902
11
163.5101489999999842
21
-127.3076949999999954
0
LINE
8
BLACK
6
CONTINUOUS
10
164.4625299999999868
20
-126.8315039999999954
11
164.4625299999999868
21
-128.8315039999999954
0
LINE
8
BLACK
6
CONTINUOUS
10
164.4625299999999868
20
-126.9267419999999902
11
164.6530060000000049
21
-126.8315039999999954
0
LINE
8
BLACK
6
CONTINUOUS
10
164.6530060000000049
20
-126.8315039999999954
11
165.0339589999999816
21
-126.8315039999999954
0
LINE
8
BLACK
6
CONTINUOUS
10
165.0339589999999816
20
-126.8315039999999954
11
165.2244349999999997
21
-126.9267419999999902
0
LINE
8
BLACK
6
CONTINUOUS
10
165.2244349999999997
20
-126.9267419999999902
11
165.3196729999999945
21
-127.0219799999999992
0
LINE
8
BLACK
6
CONTINUOUS
10
165.3196729999999945
20
-127.0219799999999992
11
165.4149109999999894
21
-127.2124570000000006
0
LINE
8
BLACK
6
CONTINUOUS
10
165.4149109999999894
20
-127.2124570000000006
11
165.4149109999999894
21
-127.7838849999999979
0
LINE
8
BLACK
6
CONTINUOUS
10
165.4149109999999894
20
-127.7838849999999979
11
165.3196729999999945
21
-127.9743609999999876
0
LINE
8
BLACK
6
CONTINUOUS
10
165.3196729999999945
20
-127.9743609999999876
11
165.2244349999999997
21
-128.0696000000000083
0
LINE
8
BLACK
6
CONTINUOUS
10
165.2244349999999997
20
-128.0696000000000083
11
165.0339589999999816
21
-128.1648380000000031
0
LINE
8
BLACK
6
CONTINUOUS
10
165.0339589999999816
20
-128.1648380000000031
11
164.6530060000000049
21
-128.1648380000000031
0
LINE
8
BLACK
6
CONTINUOUS
10
164.6530060000000049
20
-128.1648380000000031
11
164.4625299999999868
21
-128.0696000000000083
0
LINE
8
BLACK
6
CONTINUOUS
10
166.2720539999999971
20
-127.9743609999999876
11
166.367291999999992
21
-128.0696000000000083
0
LINE
8
BLACK
6
CONTINUOUS
10
166.367291999999992
20
-128.0696000000000083
11
166.2720539999999971
21
-128.1648380000000031
0
LINE
8
BLACK
6
CONTINUOUS
10
166.2720539999999971
20
-128.1648380000000031
11
166.1768160000000023
21
-128.0696000000000083
0
LINE
8
BLACK
6
CONTINUOUS
10
166.1768160000000023
20
-128.0696000000000083
11
166.2720539999999971
21
-127.9743609999999876
0
LINE
8
BLACK
6
CONTINUOUS
10
166.2720539999999971
20
-127.9743609999999876
11
166.2720539999999971
21
-128.1648380000000031
0
LINE
8
BLACK
6
CONTINUOUS
10
166.2720539999999971
20
-126.9267419999999902
11
166.367291999999992
21
-127.0219799999999992
0
LINE
8
BLACK
6
CONTINUOUS
10
166.367291999999992
20
-127.0219799999999992
11
166.2720539999999971
21
-127.1172189999999915
0
LINE
8
BLACK
6
CONTINUOUS
10
166.2720539999999971
20
-127.1172189999999915
11
166.1768160000000023
21
-127.0219799999999992
0
LINE
8
BLACK
6
CONTINUOUS
10
166.1768160000000023
20
-127.0219799999999992
11
166.2720539999999971
21
-126.9267419999999902
0
LINE
8
BLACK
6
CONTINUOUS
10
166.2720539999999971
20
-126.9267419999999902
11
166.2720539999999971
21
-127.1172189999999915
  0
ENDSEC
  0
EOF
