%TF.GenerationSoftware,KiCad,Pcbnew,8.0.4*%
%TF.CreationDate,2024-08-20T10:11:57+03:00*%
%TF.ProjectId,stm32f030k6t6,73746d33-3266-4303-9330-6b3674362e6b,rev?*%
%TF.SameCoordinates,Original*%
%TF.FileFunction,Legend,Top*%
%TF.FilePolarity,Positive*%
%FSLAX46Y46*%
G04 Gerber Fmt 4.6, Leading zero omitted, Abs format (unit mm)*
G04 Created by KiCad (PCBNEW 8.0.4) date 2024-08-20 10:11:57*
%MOMM*%
%LPD*%
G01*
G04 APERTURE LIST*
%ADD10C,0.150000*%
%ADD11C,0.120000*%
G04 APERTURE END LIST*
D10*
X195960588Y-47017438D02*
X195865350Y-46969819D01*
X195865350Y-46969819D02*
X195722493Y-46969819D01*
X195722493Y-46969819D02*
X195579636Y-47017438D01*
X195579636Y-47017438D02*
X195484398Y-47112676D01*
X195484398Y-47112676D02*
X195436779Y-47207914D01*
X195436779Y-47207914D02*
X195389160Y-47398390D01*
X195389160Y-47398390D02*
X195389160Y-47541247D01*
X195389160Y-47541247D02*
X195436779Y-47731723D01*
X195436779Y-47731723D02*
X195484398Y-47826961D01*
X195484398Y-47826961D02*
X195579636Y-47922200D01*
X195579636Y-47922200D02*
X195722493Y-47969819D01*
X195722493Y-47969819D02*
X195817731Y-47969819D01*
X195817731Y-47969819D02*
X195960588Y-47922200D01*
X195960588Y-47922200D02*
X196008207Y-47874580D01*
X196008207Y-47874580D02*
X196008207Y-47541247D01*
X196008207Y-47541247D02*
X195817731Y-47541247D01*
X196436779Y-47969819D02*
X196436779Y-46969819D01*
X196436779Y-46969819D02*
X197008207Y-47969819D01*
X197008207Y-47969819D02*
X197008207Y-46969819D01*
X197484398Y-47969819D02*
X197484398Y-46969819D01*
X197484398Y-46969819D02*
X197722493Y-46969819D01*
X197722493Y-46969819D02*
X197865350Y-47017438D01*
X197865350Y-47017438D02*
X197960588Y-47112676D01*
X197960588Y-47112676D02*
X198008207Y-47207914D01*
X198008207Y-47207914D02*
X198055826Y-47398390D01*
X198055826Y-47398390D02*
X198055826Y-47541247D01*
X198055826Y-47541247D02*
X198008207Y-47731723D01*
X198008207Y-47731723D02*
X197960588Y-47826961D01*
X197960588Y-47826961D02*
X197865350Y-47922200D01*
X197865350Y-47922200D02*
X197722493Y-47969819D01*
X197722493Y-47969819D02*
X197484398Y-47969819D01*
X174536779Y-71888866D02*
X175298684Y-71888866D01*
X174917731Y-72269819D02*
X174917731Y-71507914D01*
X176251064Y-71269819D02*
X175774874Y-71269819D01*
X175774874Y-71269819D02*
X175727255Y-71746009D01*
X175727255Y-71746009D02*
X175774874Y-71698390D01*
X175774874Y-71698390D02*
X175870112Y-71650771D01*
X175870112Y-71650771D02*
X176108207Y-71650771D01*
X176108207Y-71650771D02*
X176203445Y-71698390D01*
X176203445Y-71698390D02*
X176251064Y-71746009D01*
X176251064Y-71746009D02*
X176298683Y-71841247D01*
X176298683Y-71841247D02*
X176298683Y-72079342D01*
X176298683Y-72079342D02*
X176251064Y-72174580D01*
X176251064Y-72174580D02*
X176203445Y-72222200D01*
X176203445Y-72222200D02*
X176108207Y-72269819D01*
X176108207Y-72269819D02*
X175870112Y-72269819D01*
X175870112Y-72269819D02*
X175774874Y-72222200D01*
X175774874Y-72222200D02*
X175727255Y-72174580D01*
X176584398Y-71269819D02*
X176917731Y-72269819D01*
X176917731Y-72269819D02*
X177251064Y-71269819D01*
X175060588Y-68717438D02*
X174965350Y-68669819D01*
X174965350Y-68669819D02*
X174822493Y-68669819D01*
X174822493Y-68669819D02*
X174679636Y-68717438D01*
X174679636Y-68717438D02*
X174584398Y-68812676D01*
X174584398Y-68812676D02*
X174536779Y-68907914D01*
X174536779Y-68907914D02*
X174489160Y-69098390D01*
X174489160Y-69098390D02*
X174489160Y-69241247D01*
X174489160Y-69241247D02*
X174536779Y-69431723D01*
X174536779Y-69431723D02*
X174584398Y-69526961D01*
X174584398Y-69526961D02*
X174679636Y-69622200D01*
X174679636Y-69622200D02*
X174822493Y-69669819D01*
X174822493Y-69669819D02*
X174917731Y-69669819D01*
X174917731Y-69669819D02*
X175060588Y-69622200D01*
X175060588Y-69622200D02*
X175108207Y-69574580D01*
X175108207Y-69574580D02*
X175108207Y-69241247D01*
X175108207Y-69241247D02*
X174917731Y-69241247D01*
X175536779Y-69669819D02*
X175536779Y-68669819D01*
X175536779Y-68669819D02*
X176108207Y-69669819D01*
X176108207Y-69669819D02*
X176108207Y-68669819D01*
X176584398Y-69669819D02*
X176584398Y-68669819D01*
X176584398Y-68669819D02*
X176822493Y-68669819D01*
X176822493Y-68669819D02*
X176965350Y-68717438D01*
X176965350Y-68717438D02*
X177060588Y-68812676D01*
X177060588Y-68812676D02*
X177108207Y-68907914D01*
X177108207Y-68907914D02*
X177155826Y-69098390D01*
X177155826Y-69098390D02*
X177155826Y-69241247D01*
X177155826Y-69241247D02*
X177108207Y-69431723D01*
X177108207Y-69431723D02*
X177060588Y-69526961D01*
X177060588Y-69526961D02*
X176965350Y-69622200D01*
X176965350Y-69622200D02*
X176822493Y-69669819D01*
X176822493Y-69669819D02*
X176584398Y-69669819D01*
X191689160Y-52922200D02*
X191832017Y-52969819D01*
X191832017Y-52969819D02*
X192070112Y-52969819D01*
X192070112Y-52969819D02*
X192165350Y-52922200D01*
X192165350Y-52922200D02*
X192212969Y-52874580D01*
X192212969Y-52874580D02*
X192260588Y-52779342D01*
X192260588Y-52779342D02*
X192260588Y-52684104D01*
X192260588Y-52684104D02*
X192212969Y-52588866D01*
X192212969Y-52588866D02*
X192165350Y-52541247D01*
X192165350Y-52541247D02*
X192070112Y-52493628D01*
X192070112Y-52493628D02*
X191879636Y-52446009D01*
X191879636Y-52446009D02*
X191784398Y-52398390D01*
X191784398Y-52398390D02*
X191736779Y-52350771D01*
X191736779Y-52350771D02*
X191689160Y-52255533D01*
X191689160Y-52255533D02*
X191689160Y-52160295D01*
X191689160Y-52160295D02*
X191736779Y-52065057D01*
X191736779Y-52065057D02*
X191784398Y-52017438D01*
X191784398Y-52017438D02*
X191879636Y-51969819D01*
X191879636Y-51969819D02*
X192117731Y-51969819D01*
X192117731Y-51969819D02*
X192260588Y-52017438D01*
X192593922Y-51969819D02*
X192832017Y-52969819D01*
X192832017Y-52969819D02*
X193022493Y-52255533D01*
X193022493Y-52255533D02*
X193212969Y-52969819D01*
X193212969Y-52969819D02*
X193451065Y-51969819D01*
X194403445Y-52874580D02*
X194355826Y-52922200D01*
X194355826Y-52922200D02*
X194212969Y-52969819D01*
X194212969Y-52969819D02*
X194117731Y-52969819D01*
X194117731Y-52969819D02*
X193974874Y-52922200D01*
X193974874Y-52922200D02*
X193879636Y-52826961D01*
X193879636Y-52826961D02*
X193832017Y-52731723D01*
X193832017Y-52731723D02*
X193784398Y-52541247D01*
X193784398Y-52541247D02*
X193784398Y-52398390D01*
X193784398Y-52398390D02*
X193832017Y-52207914D01*
X193832017Y-52207914D02*
X193879636Y-52112676D01*
X193879636Y-52112676D02*
X193974874Y-52017438D01*
X193974874Y-52017438D02*
X194117731Y-51969819D01*
X194117731Y-51969819D02*
X194212969Y-51969819D01*
X194212969Y-51969819D02*
X194355826Y-52017438D01*
X194355826Y-52017438D02*
X194403445Y-52065057D01*
X195308207Y-52969819D02*
X194832017Y-52969819D01*
X194832017Y-52969819D02*
X194832017Y-51969819D01*
X195641541Y-52969819D02*
X195641541Y-51969819D01*
X196212969Y-52969819D02*
X195784398Y-52398390D01*
X196212969Y-51969819D02*
X195641541Y-52541247D01*
X188989160Y-47922200D02*
X189132017Y-47969819D01*
X189132017Y-47969819D02*
X189370112Y-47969819D01*
X189370112Y-47969819D02*
X189465350Y-47922200D01*
X189465350Y-47922200D02*
X189512969Y-47874580D01*
X189512969Y-47874580D02*
X189560588Y-47779342D01*
X189560588Y-47779342D02*
X189560588Y-47684104D01*
X189560588Y-47684104D02*
X189512969Y-47588866D01*
X189512969Y-47588866D02*
X189465350Y-47541247D01*
X189465350Y-47541247D02*
X189370112Y-47493628D01*
X189370112Y-47493628D02*
X189179636Y-47446009D01*
X189179636Y-47446009D02*
X189084398Y-47398390D01*
X189084398Y-47398390D02*
X189036779Y-47350771D01*
X189036779Y-47350771D02*
X188989160Y-47255533D01*
X188989160Y-47255533D02*
X188989160Y-47160295D01*
X188989160Y-47160295D02*
X189036779Y-47065057D01*
X189036779Y-47065057D02*
X189084398Y-47017438D01*
X189084398Y-47017438D02*
X189179636Y-46969819D01*
X189179636Y-46969819D02*
X189417731Y-46969819D01*
X189417731Y-46969819D02*
X189560588Y-47017438D01*
X189893922Y-46969819D02*
X190132017Y-47969819D01*
X190132017Y-47969819D02*
X190322493Y-47255533D01*
X190322493Y-47255533D02*
X190512969Y-47969819D01*
X190512969Y-47969819D02*
X190751065Y-46969819D01*
X191132017Y-47969819D02*
X191132017Y-46969819D01*
X191132017Y-46969819D02*
X191370112Y-46969819D01*
X191370112Y-46969819D02*
X191512969Y-47017438D01*
X191512969Y-47017438D02*
X191608207Y-47112676D01*
X191608207Y-47112676D02*
X191655826Y-47207914D01*
X191655826Y-47207914D02*
X191703445Y-47398390D01*
X191703445Y-47398390D02*
X191703445Y-47541247D01*
X191703445Y-47541247D02*
X191655826Y-47731723D01*
X191655826Y-47731723D02*
X191608207Y-47826961D01*
X191608207Y-47826961D02*
X191512969Y-47922200D01*
X191512969Y-47922200D02*
X191370112Y-47969819D01*
X191370112Y-47969819D02*
X191132017Y-47969819D01*
X192132017Y-47969819D02*
X192132017Y-46969819D01*
X192798683Y-46969819D02*
X192989159Y-46969819D01*
X192989159Y-46969819D02*
X193084397Y-47017438D01*
X193084397Y-47017438D02*
X193179635Y-47112676D01*
X193179635Y-47112676D02*
X193227254Y-47303152D01*
X193227254Y-47303152D02*
X193227254Y-47636485D01*
X193227254Y-47636485D02*
X193179635Y-47826961D01*
X193179635Y-47826961D02*
X193084397Y-47922200D01*
X193084397Y-47922200D02*
X192989159Y-47969819D01*
X192989159Y-47969819D02*
X192798683Y-47969819D01*
X192798683Y-47969819D02*
X192703445Y-47922200D01*
X192703445Y-47922200D02*
X192608207Y-47826961D01*
X192608207Y-47826961D02*
X192560588Y-47636485D01*
X192560588Y-47636485D02*
X192560588Y-47303152D01*
X192560588Y-47303152D02*
X192608207Y-47112676D01*
X192608207Y-47112676D02*
X192703445Y-47017438D01*
X192703445Y-47017438D02*
X192798683Y-46969819D01*
X200993922Y-47069819D02*
X201565350Y-47069819D01*
X201279636Y-48069819D02*
X201279636Y-47069819D01*
X201803446Y-47069819D02*
X202470112Y-48069819D01*
X202470112Y-47069819D02*
X201803446Y-48069819D01*
X174336779Y-74669819D02*
X174336779Y-73669819D01*
X174765350Y-73765057D02*
X174812969Y-73717438D01*
X174812969Y-73717438D02*
X174908207Y-73669819D01*
X174908207Y-73669819D02*
X175146302Y-73669819D01*
X175146302Y-73669819D02*
X175241540Y-73717438D01*
X175241540Y-73717438D02*
X175289159Y-73765057D01*
X175289159Y-73765057D02*
X175336778Y-73860295D01*
X175336778Y-73860295D02*
X175336778Y-73955533D01*
X175336778Y-73955533D02*
X175289159Y-74098390D01*
X175289159Y-74098390D02*
X174717731Y-74669819D01*
X174717731Y-74669819D02*
X175336778Y-74669819D01*
X176336778Y-74574580D02*
X176289159Y-74622200D01*
X176289159Y-74622200D02*
X176146302Y-74669819D01*
X176146302Y-74669819D02*
X176051064Y-74669819D01*
X176051064Y-74669819D02*
X175908207Y-74622200D01*
X175908207Y-74622200D02*
X175812969Y-74526961D01*
X175812969Y-74526961D02*
X175765350Y-74431723D01*
X175765350Y-74431723D02*
X175717731Y-74241247D01*
X175717731Y-74241247D02*
X175717731Y-74098390D01*
X175717731Y-74098390D02*
X175765350Y-73907914D01*
X175765350Y-73907914D02*
X175812969Y-73812676D01*
X175812969Y-73812676D02*
X175908207Y-73717438D01*
X175908207Y-73717438D02*
X176051064Y-73669819D01*
X176051064Y-73669819D02*
X176146302Y-73669819D01*
X176146302Y-73669819D02*
X176289159Y-73717438D01*
X176289159Y-73717438D02*
X176336778Y-73765057D01*
X176527255Y-74765057D02*
X177289159Y-74765057D01*
X177479636Y-74622200D02*
X177622493Y-74669819D01*
X177622493Y-74669819D02*
X177860588Y-74669819D01*
X177860588Y-74669819D02*
X177955826Y-74622200D01*
X177955826Y-74622200D02*
X178003445Y-74574580D01*
X178003445Y-74574580D02*
X178051064Y-74479342D01*
X178051064Y-74479342D02*
X178051064Y-74384104D01*
X178051064Y-74384104D02*
X178003445Y-74288866D01*
X178003445Y-74288866D02*
X177955826Y-74241247D01*
X177955826Y-74241247D02*
X177860588Y-74193628D01*
X177860588Y-74193628D02*
X177670112Y-74146009D01*
X177670112Y-74146009D02*
X177574874Y-74098390D01*
X177574874Y-74098390D02*
X177527255Y-74050771D01*
X177527255Y-74050771D02*
X177479636Y-73955533D01*
X177479636Y-73955533D02*
X177479636Y-73860295D01*
X177479636Y-73860295D02*
X177527255Y-73765057D01*
X177527255Y-73765057D02*
X177574874Y-73717438D01*
X177574874Y-73717438D02*
X177670112Y-73669819D01*
X177670112Y-73669819D02*
X177908207Y-73669819D01*
X177908207Y-73669819D02*
X178051064Y-73717438D01*
X178479636Y-74669819D02*
X178479636Y-73669819D01*
X178479636Y-73669819D02*
X178717731Y-73669819D01*
X178717731Y-73669819D02*
X178860588Y-73717438D01*
X178860588Y-73717438D02*
X178955826Y-73812676D01*
X178955826Y-73812676D02*
X179003445Y-73907914D01*
X179003445Y-73907914D02*
X179051064Y-74098390D01*
X179051064Y-74098390D02*
X179051064Y-74241247D01*
X179051064Y-74241247D02*
X179003445Y-74431723D01*
X179003445Y-74431723D02*
X178955826Y-74526961D01*
X178955826Y-74526961D02*
X178860588Y-74622200D01*
X178860588Y-74622200D02*
X178717731Y-74669819D01*
X178717731Y-74669819D02*
X178479636Y-74669819D01*
X179432017Y-74384104D02*
X179908207Y-74384104D01*
X179336779Y-74669819D02*
X179670112Y-73669819D01*
X179670112Y-73669819D02*
X180003445Y-74669819D01*
X204208207Y-48069819D02*
X203874874Y-47593628D01*
X203636779Y-48069819D02*
X203636779Y-47069819D01*
X203636779Y-47069819D02*
X204017731Y-47069819D01*
X204017731Y-47069819D02*
X204112969Y-47117438D01*
X204112969Y-47117438D02*
X204160588Y-47165057D01*
X204160588Y-47165057D02*
X204208207Y-47260295D01*
X204208207Y-47260295D02*
X204208207Y-47403152D01*
X204208207Y-47403152D02*
X204160588Y-47498390D01*
X204160588Y-47498390D02*
X204112969Y-47546009D01*
X204112969Y-47546009D02*
X204017731Y-47593628D01*
X204017731Y-47593628D02*
X203636779Y-47593628D01*
X204541541Y-47069819D02*
X205208207Y-48069819D01*
X205208207Y-47069819D02*
X204541541Y-48069819D01*
X206360588Y-47117438D02*
X206265350Y-47069819D01*
X206265350Y-47069819D02*
X206122493Y-47069819D01*
X206122493Y-47069819D02*
X205979636Y-47117438D01*
X205979636Y-47117438D02*
X205884398Y-47212676D01*
X205884398Y-47212676D02*
X205836779Y-47307914D01*
X205836779Y-47307914D02*
X205789160Y-47498390D01*
X205789160Y-47498390D02*
X205789160Y-47641247D01*
X205789160Y-47641247D02*
X205836779Y-47831723D01*
X205836779Y-47831723D02*
X205884398Y-47926961D01*
X205884398Y-47926961D02*
X205979636Y-48022200D01*
X205979636Y-48022200D02*
X206122493Y-48069819D01*
X206122493Y-48069819D02*
X206217731Y-48069819D01*
X206217731Y-48069819D02*
X206360588Y-48022200D01*
X206360588Y-48022200D02*
X206408207Y-47974580D01*
X206408207Y-47974580D02*
X206408207Y-47641247D01*
X206408207Y-47641247D02*
X206217731Y-47641247D01*
X206836779Y-48069819D02*
X206836779Y-47069819D01*
X206836779Y-47069819D02*
X207408207Y-48069819D01*
X207408207Y-48069819D02*
X207408207Y-47069819D01*
X207884398Y-48069819D02*
X207884398Y-47069819D01*
X207884398Y-47069819D02*
X208122493Y-47069819D01*
X208122493Y-47069819D02*
X208265350Y-47117438D01*
X208265350Y-47117438D02*
X208360588Y-47212676D01*
X208360588Y-47212676D02*
X208408207Y-47307914D01*
X208408207Y-47307914D02*
X208455826Y-47498390D01*
X208455826Y-47498390D02*
X208455826Y-47641247D01*
X208455826Y-47641247D02*
X208408207Y-47831723D01*
X208408207Y-47831723D02*
X208360588Y-47926961D01*
X208360588Y-47926961D02*
X208265350Y-48022200D01*
X208265350Y-48022200D02*
X208122493Y-48069819D01*
X208122493Y-48069819D02*
X207884398Y-48069819D01*
X186408207Y-52969819D02*
X186074874Y-52493628D01*
X185836779Y-52969819D02*
X185836779Y-51969819D01*
X185836779Y-51969819D02*
X186217731Y-51969819D01*
X186217731Y-51969819D02*
X186312969Y-52017438D01*
X186312969Y-52017438D02*
X186360588Y-52065057D01*
X186360588Y-52065057D02*
X186408207Y-52160295D01*
X186408207Y-52160295D02*
X186408207Y-52303152D01*
X186408207Y-52303152D02*
X186360588Y-52398390D01*
X186360588Y-52398390D02*
X186312969Y-52446009D01*
X186312969Y-52446009D02*
X186217731Y-52493628D01*
X186217731Y-52493628D02*
X185836779Y-52493628D01*
X186836779Y-52446009D02*
X187170112Y-52446009D01*
X187312969Y-52969819D02*
X186836779Y-52969819D01*
X186836779Y-52969819D02*
X186836779Y-51969819D01*
X186836779Y-51969819D02*
X187312969Y-51969819D01*
X187693922Y-52922200D02*
X187836779Y-52969819D01*
X187836779Y-52969819D02*
X188074874Y-52969819D01*
X188074874Y-52969819D02*
X188170112Y-52922200D01*
X188170112Y-52922200D02*
X188217731Y-52874580D01*
X188217731Y-52874580D02*
X188265350Y-52779342D01*
X188265350Y-52779342D02*
X188265350Y-52684104D01*
X188265350Y-52684104D02*
X188217731Y-52588866D01*
X188217731Y-52588866D02*
X188170112Y-52541247D01*
X188170112Y-52541247D02*
X188074874Y-52493628D01*
X188074874Y-52493628D02*
X187884398Y-52446009D01*
X187884398Y-52446009D02*
X187789160Y-52398390D01*
X187789160Y-52398390D02*
X187741541Y-52350771D01*
X187741541Y-52350771D02*
X187693922Y-52255533D01*
X187693922Y-52255533D02*
X187693922Y-52160295D01*
X187693922Y-52160295D02*
X187741541Y-52065057D01*
X187741541Y-52065057D02*
X187789160Y-52017438D01*
X187789160Y-52017438D02*
X187884398Y-51969819D01*
X187884398Y-51969819D02*
X188122493Y-51969819D01*
X188122493Y-51969819D02*
X188265350Y-52017438D01*
X188693922Y-52446009D02*
X189027255Y-52446009D01*
X189170112Y-52969819D02*
X188693922Y-52969819D01*
X188693922Y-52969819D02*
X188693922Y-51969819D01*
X188693922Y-51969819D02*
X189170112Y-51969819D01*
X189455827Y-51969819D02*
X190027255Y-51969819D01*
X189741541Y-52969819D02*
X189741541Y-51969819D01*
X174336779Y-77269819D02*
X174336779Y-76269819D01*
X174765350Y-76365057D02*
X174812969Y-76317438D01*
X174812969Y-76317438D02*
X174908207Y-76269819D01*
X174908207Y-76269819D02*
X175146302Y-76269819D01*
X175146302Y-76269819D02*
X175241540Y-76317438D01*
X175241540Y-76317438D02*
X175289159Y-76365057D01*
X175289159Y-76365057D02*
X175336778Y-76460295D01*
X175336778Y-76460295D02*
X175336778Y-76555533D01*
X175336778Y-76555533D02*
X175289159Y-76698390D01*
X175289159Y-76698390D02*
X174717731Y-77269819D01*
X174717731Y-77269819D02*
X175336778Y-77269819D01*
X176336778Y-77174580D02*
X176289159Y-77222200D01*
X176289159Y-77222200D02*
X176146302Y-77269819D01*
X176146302Y-77269819D02*
X176051064Y-77269819D01*
X176051064Y-77269819D02*
X175908207Y-77222200D01*
X175908207Y-77222200D02*
X175812969Y-77126961D01*
X175812969Y-77126961D02*
X175765350Y-77031723D01*
X175765350Y-77031723D02*
X175717731Y-76841247D01*
X175717731Y-76841247D02*
X175717731Y-76698390D01*
X175717731Y-76698390D02*
X175765350Y-76507914D01*
X175765350Y-76507914D02*
X175812969Y-76412676D01*
X175812969Y-76412676D02*
X175908207Y-76317438D01*
X175908207Y-76317438D02*
X176051064Y-76269819D01*
X176051064Y-76269819D02*
X176146302Y-76269819D01*
X176146302Y-76269819D02*
X176289159Y-76317438D01*
X176289159Y-76317438D02*
X176336778Y-76365057D01*
X176527255Y-77365057D02*
X177289159Y-77365057D01*
X177479636Y-77222200D02*
X177622493Y-77269819D01*
X177622493Y-77269819D02*
X177860588Y-77269819D01*
X177860588Y-77269819D02*
X177955826Y-77222200D01*
X177955826Y-77222200D02*
X178003445Y-77174580D01*
X178003445Y-77174580D02*
X178051064Y-77079342D01*
X178051064Y-77079342D02*
X178051064Y-76984104D01*
X178051064Y-76984104D02*
X178003445Y-76888866D01*
X178003445Y-76888866D02*
X177955826Y-76841247D01*
X177955826Y-76841247D02*
X177860588Y-76793628D01*
X177860588Y-76793628D02*
X177670112Y-76746009D01*
X177670112Y-76746009D02*
X177574874Y-76698390D01*
X177574874Y-76698390D02*
X177527255Y-76650771D01*
X177527255Y-76650771D02*
X177479636Y-76555533D01*
X177479636Y-76555533D02*
X177479636Y-76460295D01*
X177479636Y-76460295D02*
X177527255Y-76365057D01*
X177527255Y-76365057D02*
X177574874Y-76317438D01*
X177574874Y-76317438D02*
X177670112Y-76269819D01*
X177670112Y-76269819D02*
X177908207Y-76269819D01*
X177908207Y-76269819D02*
X178051064Y-76317438D01*
X179051064Y-77174580D02*
X179003445Y-77222200D01*
X179003445Y-77222200D02*
X178860588Y-77269819D01*
X178860588Y-77269819D02*
X178765350Y-77269819D01*
X178765350Y-77269819D02*
X178622493Y-77222200D01*
X178622493Y-77222200D02*
X178527255Y-77126961D01*
X178527255Y-77126961D02*
X178479636Y-77031723D01*
X178479636Y-77031723D02*
X178432017Y-76841247D01*
X178432017Y-76841247D02*
X178432017Y-76698390D01*
X178432017Y-76698390D02*
X178479636Y-76507914D01*
X178479636Y-76507914D02*
X178527255Y-76412676D01*
X178527255Y-76412676D02*
X178622493Y-76317438D01*
X178622493Y-76317438D02*
X178765350Y-76269819D01*
X178765350Y-76269819D02*
X178860588Y-76269819D01*
X178860588Y-76269819D02*
X179003445Y-76317438D01*
X179003445Y-76317438D02*
X179051064Y-76365057D01*
X179955826Y-77269819D02*
X179479636Y-77269819D01*
X179479636Y-77269819D02*
X179479636Y-76269819D01*
X215666667Y-122907200D02*
X215809524Y-122954819D01*
X215809524Y-122954819D02*
X216047619Y-122954819D01*
X216047619Y-122954819D02*
X216142857Y-122907200D01*
X216142857Y-122907200D02*
X216190476Y-122859580D01*
X216190476Y-122859580D02*
X216238095Y-122764342D01*
X216238095Y-122764342D02*
X216238095Y-122669104D01*
X216238095Y-122669104D02*
X216190476Y-122573866D01*
X216190476Y-122573866D02*
X216142857Y-122526247D01*
X216142857Y-122526247D02*
X216047619Y-122478628D01*
X216047619Y-122478628D02*
X215857143Y-122431009D01*
X215857143Y-122431009D02*
X215761905Y-122383390D01*
X215761905Y-122383390D02*
X215714286Y-122335771D01*
X215714286Y-122335771D02*
X215666667Y-122240533D01*
X215666667Y-122240533D02*
X215666667Y-122145295D01*
X215666667Y-122145295D02*
X215714286Y-122050057D01*
X215714286Y-122050057D02*
X215761905Y-122002438D01*
X215761905Y-122002438D02*
X215857143Y-121954819D01*
X215857143Y-121954819D02*
X216095238Y-121954819D01*
X216095238Y-121954819D02*
X216238095Y-122002438D01*
X216571429Y-121954819D02*
X216809524Y-122954819D01*
X216809524Y-122954819D02*
X217000000Y-122240533D01*
X217000000Y-122240533D02*
X217190476Y-122954819D01*
X217190476Y-122954819D02*
X217428572Y-121954819D01*
X217714286Y-121954819D02*
X218333333Y-121954819D01*
X218333333Y-121954819D02*
X218000000Y-122335771D01*
X218000000Y-122335771D02*
X218142857Y-122335771D01*
X218142857Y-122335771D02*
X218238095Y-122383390D01*
X218238095Y-122383390D02*
X218285714Y-122431009D01*
X218285714Y-122431009D02*
X218333333Y-122526247D01*
X218333333Y-122526247D02*
X218333333Y-122764342D01*
X218333333Y-122764342D02*
X218285714Y-122859580D01*
X218285714Y-122859580D02*
X218238095Y-122907200D01*
X218238095Y-122907200D02*
X218142857Y-122954819D01*
X218142857Y-122954819D02*
X217857143Y-122954819D01*
X217857143Y-122954819D02*
X217761905Y-122907200D01*
X217761905Y-122907200D02*
X217714286Y-122859580D01*
X240107200Y-109633332D02*
X240154819Y-109490475D01*
X240154819Y-109490475D02*
X240154819Y-109252380D01*
X240154819Y-109252380D02*
X240107200Y-109157142D01*
X240107200Y-109157142D02*
X240059580Y-109109523D01*
X240059580Y-109109523D02*
X239964342Y-109061904D01*
X239964342Y-109061904D02*
X239869104Y-109061904D01*
X239869104Y-109061904D02*
X239773866Y-109109523D01*
X239773866Y-109109523D02*
X239726247Y-109157142D01*
X239726247Y-109157142D02*
X239678628Y-109252380D01*
X239678628Y-109252380D02*
X239631009Y-109442856D01*
X239631009Y-109442856D02*
X239583390Y-109538094D01*
X239583390Y-109538094D02*
X239535771Y-109585713D01*
X239535771Y-109585713D02*
X239440533Y-109633332D01*
X239440533Y-109633332D02*
X239345295Y-109633332D01*
X239345295Y-109633332D02*
X239250057Y-109585713D01*
X239250057Y-109585713D02*
X239202438Y-109538094D01*
X239202438Y-109538094D02*
X239154819Y-109442856D01*
X239154819Y-109442856D02*
X239154819Y-109204761D01*
X239154819Y-109204761D02*
X239202438Y-109061904D01*
X239154819Y-108728570D02*
X240154819Y-108490475D01*
X240154819Y-108490475D02*
X239440533Y-108299999D01*
X239440533Y-108299999D02*
X240154819Y-108109523D01*
X240154819Y-108109523D02*
X239154819Y-107871428D01*
X240154819Y-106966666D02*
X240154819Y-107538094D01*
X240154819Y-107252380D02*
X239154819Y-107252380D01*
X239154819Y-107252380D02*
X239297676Y-107347618D01*
X239297676Y-107347618D02*
X239392914Y-107442856D01*
X239392914Y-107442856D02*
X239440533Y-107538094D01*
X213633333Y-62954819D02*
X213300000Y-62478628D01*
X213061905Y-62954819D02*
X213061905Y-61954819D01*
X213061905Y-61954819D02*
X213442857Y-61954819D01*
X213442857Y-61954819D02*
X213538095Y-62002438D01*
X213538095Y-62002438D02*
X213585714Y-62050057D01*
X213585714Y-62050057D02*
X213633333Y-62145295D01*
X213633333Y-62145295D02*
X213633333Y-62288152D01*
X213633333Y-62288152D02*
X213585714Y-62383390D01*
X213585714Y-62383390D02*
X213538095Y-62431009D01*
X213538095Y-62431009D02*
X213442857Y-62478628D01*
X213442857Y-62478628D02*
X213061905Y-62478628D01*
X214109524Y-62954819D02*
X214300000Y-62954819D01*
X214300000Y-62954819D02*
X214395238Y-62907200D01*
X214395238Y-62907200D02*
X214442857Y-62859580D01*
X214442857Y-62859580D02*
X214538095Y-62716723D01*
X214538095Y-62716723D02*
X214585714Y-62526247D01*
X214585714Y-62526247D02*
X214585714Y-62145295D01*
X214585714Y-62145295D02*
X214538095Y-62050057D01*
X214538095Y-62050057D02*
X214490476Y-62002438D01*
X214490476Y-62002438D02*
X214395238Y-61954819D01*
X214395238Y-61954819D02*
X214204762Y-61954819D01*
X214204762Y-61954819D02*
X214109524Y-62002438D01*
X214109524Y-62002438D02*
X214061905Y-62050057D01*
X214061905Y-62050057D02*
X214014286Y-62145295D01*
X214014286Y-62145295D02*
X214014286Y-62383390D01*
X214014286Y-62383390D02*
X214061905Y-62478628D01*
X214061905Y-62478628D02*
X214109524Y-62526247D01*
X214109524Y-62526247D02*
X214204762Y-62573866D01*
X214204762Y-62573866D02*
X214395238Y-62573866D01*
X214395238Y-62573866D02*
X214490476Y-62526247D01*
X214490476Y-62526247D02*
X214538095Y-62478628D01*
X214538095Y-62478628D02*
X214585714Y-62383390D01*
X209166666Y-49454819D02*
X209166666Y-50169104D01*
X209166666Y-50169104D02*
X209119047Y-50311961D01*
X209119047Y-50311961D02*
X209023809Y-50407200D01*
X209023809Y-50407200D02*
X208880952Y-50454819D01*
X208880952Y-50454819D02*
X208785714Y-50454819D01*
X210071428Y-49788152D02*
X210071428Y-50454819D01*
X209833333Y-49407200D02*
X209595238Y-50121485D01*
X209595238Y-50121485D02*
X210214285Y-50121485D01*
X189157142Y-89254819D02*
X188823809Y-88778628D01*
X188585714Y-89254819D02*
X188585714Y-88254819D01*
X188585714Y-88254819D02*
X188966666Y-88254819D01*
X188966666Y-88254819D02*
X189061904Y-88302438D01*
X189061904Y-88302438D02*
X189109523Y-88350057D01*
X189109523Y-88350057D02*
X189157142Y-88445295D01*
X189157142Y-88445295D02*
X189157142Y-88588152D01*
X189157142Y-88588152D02*
X189109523Y-88683390D01*
X189109523Y-88683390D02*
X189061904Y-88731009D01*
X189061904Y-88731009D02*
X188966666Y-88778628D01*
X188966666Y-88778628D02*
X188585714Y-88778628D01*
X190109523Y-89254819D02*
X189538095Y-89254819D01*
X189823809Y-89254819D02*
X189823809Y-88254819D01*
X189823809Y-88254819D02*
X189728571Y-88397676D01*
X189728571Y-88397676D02*
X189633333Y-88492914D01*
X189633333Y-88492914D02*
X189538095Y-88540533D01*
X191014285Y-88254819D02*
X190538095Y-88254819D01*
X190538095Y-88254819D02*
X190490476Y-88731009D01*
X190490476Y-88731009D02*
X190538095Y-88683390D01*
X190538095Y-88683390D02*
X190633333Y-88635771D01*
X190633333Y-88635771D02*
X190871428Y-88635771D01*
X190871428Y-88635771D02*
X190966666Y-88683390D01*
X190966666Y-88683390D02*
X191014285Y-88731009D01*
X191014285Y-88731009D02*
X191061904Y-88826247D01*
X191061904Y-88826247D02*
X191061904Y-89064342D01*
X191061904Y-89064342D02*
X191014285Y-89159580D01*
X191014285Y-89159580D02*
X190966666Y-89207200D01*
X190966666Y-89207200D02*
X190871428Y-89254819D01*
X190871428Y-89254819D02*
X190633333Y-89254819D01*
X190633333Y-89254819D02*
X190538095Y-89207200D01*
X190538095Y-89207200D02*
X190490476Y-89159580D01*
X204598333Y-66279819D02*
X204265000Y-65803628D01*
X204026905Y-66279819D02*
X204026905Y-65279819D01*
X204026905Y-65279819D02*
X204407857Y-65279819D01*
X204407857Y-65279819D02*
X204503095Y-65327438D01*
X204503095Y-65327438D02*
X204550714Y-65375057D01*
X204550714Y-65375057D02*
X204598333Y-65470295D01*
X204598333Y-65470295D02*
X204598333Y-65613152D01*
X204598333Y-65613152D02*
X204550714Y-65708390D01*
X204550714Y-65708390D02*
X204503095Y-65756009D01*
X204503095Y-65756009D02*
X204407857Y-65803628D01*
X204407857Y-65803628D02*
X204026905Y-65803628D01*
X205455476Y-65613152D02*
X205455476Y-66279819D01*
X205217381Y-65232200D02*
X204979286Y-65946485D01*
X204979286Y-65946485D02*
X205598333Y-65946485D01*
X170833333Y-93959580D02*
X170785714Y-94007200D01*
X170785714Y-94007200D02*
X170642857Y-94054819D01*
X170642857Y-94054819D02*
X170547619Y-94054819D01*
X170547619Y-94054819D02*
X170404762Y-94007200D01*
X170404762Y-94007200D02*
X170309524Y-93911961D01*
X170309524Y-93911961D02*
X170261905Y-93816723D01*
X170261905Y-93816723D02*
X170214286Y-93626247D01*
X170214286Y-93626247D02*
X170214286Y-93483390D01*
X170214286Y-93483390D02*
X170261905Y-93292914D01*
X170261905Y-93292914D02*
X170309524Y-93197676D01*
X170309524Y-93197676D02*
X170404762Y-93102438D01*
X170404762Y-93102438D02*
X170547619Y-93054819D01*
X170547619Y-93054819D02*
X170642857Y-93054819D01*
X170642857Y-93054819D02*
X170785714Y-93102438D01*
X170785714Y-93102438D02*
X170833333Y-93150057D01*
X171309524Y-94054819D02*
X171500000Y-94054819D01*
X171500000Y-94054819D02*
X171595238Y-94007200D01*
X171595238Y-94007200D02*
X171642857Y-93959580D01*
X171642857Y-93959580D02*
X171738095Y-93816723D01*
X171738095Y-93816723D02*
X171785714Y-93626247D01*
X171785714Y-93626247D02*
X171785714Y-93245295D01*
X171785714Y-93245295D02*
X171738095Y-93150057D01*
X171738095Y-93150057D02*
X171690476Y-93102438D01*
X171690476Y-93102438D02*
X171595238Y-93054819D01*
X171595238Y-93054819D02*
X171404762Y-93054819D01*
X171404762Y-93054819D02*
X171309524Y-93102438D01*
X171309524Y-93102438D02*
X171261905Y-93150057D01*
X171261905Y-93150057D02*
X171214286Y-93245295D01*
X171214286Y-93245295D02*
X171214286Y-93483390D01*
X171214286Y-93483390D02*
X171261905Y-93578628D01*
X171261905Y-93578628D02*
X171309524Y-93626247D01*
X171309524Y-93626247D02*
X171404762Y-93673866D01*
X171404762Y-93673866D02*
X171595238Y-93673866D01*
X171595238Y-93673866D02*
X171690476Y-93626247D01*
X171690476Y-93626247D02*
X171738095Y-93578628D01*
X171738095Y-93578628D02*
X171785714Y-93483390D01*
X155216666Y-122247319D02*
X155216666Y-122961604D01*
X155216666Y-122961604D02*
X155169047Y-123104461D01*
X155169047Y-123104461D02*
X155073809Y-123199700D01*
X155073809Y-123199700D02*
X154930952Y-123247319D01*
X154930952Y-123247319D02*
X154835714Y-123247319D01*
X156216666Y-123247319D02*
X155645238Y-123247319D01*
X155930952Y-123247319D02*
X155930952Y-122247319D01*
X155930952Y-122247319D02*
X155835714Y-122390176D01*
X155835714Y-122390176D02*
X155740476Y-122485414D01*
X155740476Y-122485414D02*
X155645238Y-122533033D01*
X204633333Y-69159580D02*
X204585714Y-69207200D01*
X204585714Y-69207200D02*
X204442857Y-69254819D01*
X204442857Y-69254819D02*
X204347619Y-69254819D01*
X204347619Y-69254819D02*
X204204762Y-69207200D01*
X204204762Y-69207200D02*
X204109524Y-69111961D01*
X204109524Y-69111961D02*
X204061905Y-69016723D01*
X204061905Y-69016723D02*
X204014286Y-68826247D01*
X204014286Y-68826247D02*
X204014286Y-68683390D01*
X204014286Y-68683390D02*
X204061905Y-68492914D01*
X204061905Y-68492914D02*
X204109524Y-68397676D01*
X204109524Y-68397676D02*
X204204762Y-68302438D01*
X204204762Y-68302438D02*
X204347619Y-68254819D01*
X204347619Y-68254819D02*
X204442857Y-68254819D01*
X204442857Y-68254819D02*
X204585714Y-68302438D01*
X204585714Y-68302438D02*
X204633333Y-68350057D01*
X205585714Y-69254819D02*
X205014286Y-69254819D01*
X205300000Y-69254819D02*
X205300000Y-68254819D01*
X205300000Y-68254819D02*
X205204762Y-68397676D01*
X205204762Y-68397676D02*
X205109524Y-68492914D01*
X205109524Y-68492914D02*
X205014286Y-68540533D01*
X188857142Y-75604819D02*
X188523809Y-75128628D01*
X188285714Y-75604819D02*
X188285714Y-74604819D01*
X188285714Y-74604819D02*
X188666666Y-74604819D01*
X188666666Y-74604819D02*
X188761904Y-74652438D01*
X188761904Y-74652438D02*
X188809523Y-74700057D01*
X188809523Y-74700057D02*
X188857142Y-74795295D01*
X188857142Y-74795295D02*
X188857142Y-74938152D01*
X188857142Y-74938152D02*
X188809523Y-75033390D01*
X188809523Y-75033390D02*
X188761904Y-75081009D01*
X188761904Y-75081009D02*
X188666666Y-75128628D01*
X188666666Y-75128628D02*
X188285714Y-75128628D01*
X189809523Y-75604819D02*
X189238095Y-75604819D01*
X189523809Y-75604819D02*
X189523809Y-74604819D01*
X189523809Y-74604819D02*
X189428571Y-74747676D01*
X189428571Y-74747676D02*
X189333333Y-74842914D01*
X189333333Y-74842914D02*
X189238095Y-74890533D01*
X190761904Y-75604819D02*
X190190476Y-75604819D01*
X190476190Y-75604819D02*
X190476190Y-74604819D01*
X190476190Y-74604819D02*
X190380952Y-74747676D01*
X190380952Y-74747676D02*
X190285714Y-74842914D01*
X190285714Y-74842914D02*
X190190476Y-74890533D01*
X168083333Y-106609580D02*
X168035714Y-106657200D01*
X168035714Y-106657200D02*
X167892857Y-106704819D01*
X167892857Y-106704819D02*
X167797619Y-106704819D01*
X167797619Y-106704819D02*
X167654762Y-106657200D01*
X167654762Y-106657200D02*
X167559524Y-106561961D01*
X167559524Y-106561961D02*
X167511905Y-106466723D01*
X167511905Y-106466723D02*
X167464286Y-106276247D01*
X167464286Y-106276247D02*
X167464286Y-106133390D01*
X167464286Y-106133390D02*
X167511905Y-105942914D01*
X167511905Y-105942914D02*
X167559524Y-105847676D01*
X167559524Y-105847676D02*
X167654762Y-105752438D01*
X167654762Y-105752438D02*
X167797619Y-105704819D01*
X167797619Y-105704819D02*
X167892857Y-105704819D01*
X167892857Y-105704819D02*
X168035714Y-105752438D01*
X168035714Y-105752438D02*
X168083333Y-105800057D01*
X168988095Y-105704819D02*
X168511905Y-105704819D01*
X168511905Y-105704819D02*
X168464286Y-106181009D01*
X168464286Y-106181009D02*
X168511905Y-106133390D01*
X168511905Y-106133390D02*
X168607143Y-106085771D01*
X168607143Y-106085771D02*
X168845238Y-106085771D01*
X168845238Y-106085771D02*
X168940476Y-106133390D01*
X168940476Y-106133390D02*
X168988095Y-106181009D01*
X168988095Y-106181009D02*
X169035714Y-106276247D01*
X169035714Y-106276247D02*
X169035714Y-106514342D01*
X169035714Y-106514342D02*
X168988095Y-106609580D01*
X168988095Y-106609580D02*
X168940476Y-106657200D01*
X168940476Y-106657200D02*
X168845238Y-106704819D01*
X168845238Y-106704819D02*
X168607143Y-106704819D01*
X168607143Y-106704819D02*
X168511905Y-106657200D01*
X168511905Y-106657200D02*
X168464286Y-106609580D01*
X221233333Y-84454819D02*
X220900000Y-83978628D01*
X220661905Y-84454819D02*
X220661905Y-83454819D01*
X220661905Y-83454819D02*
X221042857Y-83454819D01*
X221042857Y-83454819D02*
X221138095Y-83502438D01*
X221138095Y-83502438D02*
X221185714Y-83550057D01*
X221185714Y-83550057D02*
X221233333Y-83645295D01*
X221233333Y-83645295D02*
X221233333Y-83788152D01*
X221233333Y-83788152D02*
X221185714Y-83883390D01*
X221185714Y-83883390D02*
X221138095Y-83931009D01*
X221138095Y-83931009D02*
X221042857Y-83978628D01*
X221042857Y-83978628D02*
X220661905Y-83978628D01*
X221566667Y-83454819D02*
X222233333Y-83454819D01*
X222233333Y-83454819D02*
X221804762Y-84454819D01*
X221333333Y-66454819D02*
X221000000Y-65978628D01*
X220761905Y-66454819D02*
X220761905Y-65454819D01*
X220761905Y-65454819D02*
X221142857Y-65454819D01*
X221142857Y-65454819D02*
X221238095Y-65502438D01*
X221238095Y-65502438D02*
X221285714Y-65550057D01*
X221285714Y-65550057D02*
X221333333Y-65645295D01*
X221333333Y-65645295D02*
X221333333Y-65788152D01*
X221333333Y-65788152D02*
X221285714Y-65883390D01*
X221285714Y-65883390D02*
X221238095Y-65931009D01*
X221238095Y-65931009D02*
X221142857Y-65978628D01*
X221142857Y-65978628D02*
X220761905Y-65978628D01*
X222285714Y-66454819D02*
X221714286Y-66454819D01*
X222000000Y-66454819D02*
X222000000Y-65454819D01*
X222000000Y-65454819D02*
X221904762Y-65597676D01*
X221904762Y-65597676D02*
X221809524Y-65692914D01*
X221809524Y-65692914D02*
X221714286Y-65740533D01*
X211057142Y-84259580D02*
X211009523Y-84307200D01*
X211009523Y-84307200D02*
X210866666Y-84354819D01*
X210866666Y-84354819D02*
X210771428Y-84354819D01*
X210771428Y-84354819D02*
X210628571Y-84307200D01*
X210628571Y-84307200D02*
X210533333Y-84211961D01*
X210533333Y-84211961D02*
X210485714Y-84116723D01*
X210485714Y-84116723D02*
X210438095Y-83926247D01*
X210438095Y-83926247D02*
X210438095Y-83783390D01*
X210438095Y-83783390D02*
X210485714Y-83592914D01*
X210485714Y-83592914D02*
X210533333Y-83497676D01*
X210533333Y-83497676D02*
X210628571Y-83402438D01*
X210628571Y-83402438D02*
X210771428Y-83354819D01*
X210771428Y-83354819D02*
X210866666Y-83354819D01*
X210866666Y-83354819D02*
X211009523Y-83402438D01*
X211009523Y-83402438D02*
X211057142Y-83450057D01*
X212009523Y-84354819D02*
X211438095Y-84354819D01*
X211723809Y-84354819D02*
X211723809Y-83354819D01*
X211723809Y-83354819D02*
X211628571Y-83497676D01*
X211628571Y-83497676D02*
X211533333Y-83592914D01*
X211533333Y-83592914D02*
X211438095Y-83640533D01*
X212390476Y-83450057D02*
X212438095Y-83402438D01*
X212438095Y-83402438D02*
X212533333Y-83354819D01*
X212533333Y-83354819D02*
X212771428Y-83354819D01*
X212771428Y-83354819D02*
X212866666Y-83402438D01*
X212866666Y-83402438D02*
X212914285Y-83450057D01*
X212914285Y-83450057D02*
X212961904Y-83545295D01*
X212961904Y-83545295D02*
X212961904Y-83640533D01*
X212961904Y-83640533D02*
X212914285Y-83783390D01*
X212914285Y-83783390D02*
X212342857Y-84354819D01*
X212342857Y-84354819D02*
X212961904Y-84354819D01*
X204598333Y-63029819D02*
X204265000Y-62553628D01*
X204026905Y-63029819D02*
X204026905Y-62029819D01*
X204026905Y-62029819D02*
X204407857Y-62029819D01*
X204407857Y-62029819D02*
X204503095Y-62077438D01*
X204503095Y-62077438D02*
X204550714Y-62125057D01*
X204550714Y-62125057D02*
X204598333Y-62220295D01*
X204598333Y-62220295D02*
X204598333Y-62363152D01*
X204598333Y-62363152D02*
X204550714Y-62458390D01*
X204550714Y-62458390D02*
X204503095Y-62506009D01*
X204503095Y-62506009D02*
X204407857Y-62553628D01*
X204407857Y-62553628D02*
X204026905Y-62553628D01*
X204931667Y-62029819D02*
X205550714Y-62029819D01*
X205550714Y-62029819D02*
X205217381Y-62410771D01*
X205217381Y-62410771D02*
X205360238Y-62410771D01*
X205360238Y-62410771D02*
X205455476Y-62458390D01*
X205455476Y-62458390D02*
X205503095Y-62506009D01*
X205503095Y-62506009D02*
X205550714Y-62601247D01*
X205550714Y-62601247D02*
X205550714Y-62839342D01*
X205550714Y-62839342D02*
X205503095Y-62934580D01*
X205503095Y-62934580D02*
X205455476Y-62982200D01*
X205455476Y-62982200D02*
X205360238Y-63029819D01*
X205360238Y-63029819D02*
X205074524Y-63029819D01*
X205074524Y-63029819D02*
X204979286Y-62982200D01*
X204979286Y-62982200D02*
X204931667Y-62934580D01*
X218757142Y-75759580D02*
X218709523Y-75807200D01*
X218709523Y-75807200D02*
X218566666Y-75854819D01*
X218566666Y-75854819D02*
X218471428Y-75854819D01*
X218471428Y-75854819D02*
X218328571Y-75807200D01*
X218328571Y-75807200D02*
X218233333Y-75711961D01*
X218233333Y-75711961D02*
X218185714Y-75616723D01*
X218185714Y-75616723D02*
X218138095Y-75426247D01*
X218138095Y-75426247D02*
X218138095Y-75283390D01*
X218138095Y-75283390D02*
X218185714Y-75092914D01*
X218185714Y-75092914D02*
X218233333Y-74997676D01*
X218233333Y-74997676D02*
X218328571Y-74902438D01*
X218328571Y-74902438D02*
X218471428Y-74854819D01*
X218471428Y-74854819D02*
X218566666Y-74854819D01*
X218566666Y-74854819D02*
X218709523Y-74902438D01*
X218709523Y-74902438D02*
X218757142Y-74950057D01*
X219709523Y-75854819D02*
X219138095Y-75854819D01*
X219423809Y-75854819D02*
X219423809Y-74854819D01*
X219423809Y-74854819D02*
X219328571Y-74997676D01*
X219328571Y-74997676D02*
X219233333Y-75092914D01*
X219233333Y-75092914D02*
X219138095Y-75140533D01*
X220661904Y-75854819D02*
X220090476Y-75854819D01*
X220376190Y-75854819D02*
X220376190Y-74854819D01*
X220376190Y-74854819D02*
X220280952Y-74997676D01*
X220280952Y-74997676D02*
X220185714Y-75092914D01*
X220185714Y-75092914D02*
X220090476Y-75140533D01*
X154233333Y-93759580D02*
X154185714Y-93807200D01*
X154185714Y-93807200D02*
X154042857Y-93854819D01*
X154042857Y-93854819D02*
X153947619Y-93854819D01*
X153947619Y-93854819D02*
X153804762Y-93807200D01*
X153804762Y-93807200D02*
X153709524Y-93711961D01*
X153709524Y-93711961D02*
X153661905Y-93616723D01*
X153661905Y-93616723D02*
X153614286Y-93426247D01*
X153614286Y-93426247D02*
X153614286Y-93283390D01*
X153614286Y-93283390D02*
X153661905Y-93092914D01*
X153661905Y-93092914D02*
X153709524Y-92997676D01*
X153709524Y-92997676D02*
X153804762Y-92902438D01*
X153804762Y-92902438D02*
X153947619Y-92854819D01*
X153947619Y-92854819D02*
X154042857Y-92854819D01*
X154042857Y-92854819D02*
X154185714Y-92902438D01*
X154185714Y-92902438D02*
X154233333Y-92950057D01*
X154566667Y-92854819D02*
X155233333Y-92854819D01*
X155233333Y-92854819D02*
X154804762Y-93854819D01*
X169344642Y-84759580D02*
X169297023Y-84807200D01*
X169297023Y-84807200D02*
X169154166Y-84854819D01*
X169154166Y-84854819D02*
X169058928Y-84854819D01*
X169058928Y-84854819D02*
X168916071Y-84807200D01*
X168916071Y-84807200D02*
X168820833Y-84711961D01*
X168820833Y-84711961D02*
X168773214Y-84616723D01*
X168773214Y-84616723D02*
X168725595Y-84426247D01*
X168725595Y-84426247D02*
X168725595Y-84283390D01*
X168725595Y-84283390D02*
X168773214Y-84092914D01*
X168773214Y-84092914D02*
X168820833Y-83997676D01*
X168820833Y-83997676D02*
X168916071Y-83902438D01*
X168916071Y-83902438D02*
X169058928Y-83854819D01*
X169058928Y-83854819D02*
X169154166Y-83854819D01*
X169154166Y-83854819D02*
X169297023Y-83902438D01*
X169297023Y-83902438D02*
X169344642Y-83950057D01*
X170297023Y-84854819D02*
X169725595Y-84854819D01*
X170011309Y-84854819D02*
X170011309Y-83854819D01*
X170011309Y-83854819D02*
X169916071Y-83997676D01*
X169916071Y-83997676D02*
X169820833Y-84092914D01*
X169820833Y-84092914D02*
X169725595Y-84140533D01*
X170916071Y-83854819D02*
X171011309Y-83854819D01*
X171011309Y-83854819D02*
X171106547Y-83902438D01*
X171106547Y-83902438D02*
X171154166Y-83950057D01*
X171154166Y-83950057D02*
X171201785Y-84045295D01*
X171201785Y-84045295D02*
X171249404Y-84235771D01*
X171249404Y-84235771D02*
X171249404Y-84473866D01*
X171249404Y-84473866D02*
X171201785Y-84664342D01*
X171201785Y-84664342D02*
X171154166Y-84759580D01*
X171154166Y-84759580D02*
X171106547Y-84807200D01*
X171106547Y-84807200D02*
X171011309Y-84854819D01*
X171011309Y-84854819D02*
X170916071Y-84854819D01*
X170916071Y-84854819D02*
X170820833Y-84807200D01*
X170820833Y-84807200D02*
X170773214Y-84759580D01*
X170773214Y-84759580D02*
X170725595Y-84664342D01*
X170725595Y-84664342D02*
X170677976Y-84473866D01*
X170677976Y-84473866D02*
X170677976Y-84235771D01*
X170677976Y-84235771D02*
X170725595Y-84045295D01*
X170725595Y-84045295D02*
X170773214Y-83950057D01*
X170773214Y-83950057D02*
X170820833Y-83902438D01*
X170820833Y-83902438D02*
X170916071Y-83854819D01*
X182166667Y-122907200D02*
X182309524Y-122954819D01*
X182309524Y-122954819D02*
X182547619Y-122954819D01*
X182547619Y-122954819D02*
X182642857Y-122907200D01*
X182642857Y-122907200D02*
X182690476Y-122859580D01*
X182690476Y-122859580D02*
X182738095Y-122764342D01*
X182738095Y-122764342D02*
X182738095Y-122669104D01*
X182738095Y-122669104D02*
X182690476Y-122573866D01*
X182690476Y-122573866D02*
X182642857Y-122526247D01*
X182642857Y-122526247D02*
X182547619Y-122478628D01*
X182547619Y-122478628D02*
X182357143Y-122431009D01*
X182357143Y-122431009D02*
X182261905Y-122383390D01*
X182261905Y-122383390D02*
X182214286Y-122335771D01*
X182214286Y-122335771D02*
X182166667Y-122240533D01*
X182166667Y-122240533D02*
X182166667Y-122145295D01*
X182166667Y-122145295D02*
X182214286Y-122050057D01*
X182214286Y-122050057D02*
X182261905Y-122002438D01*
X182261905Y-122002438D02*
X182357143Y-121954819D01*
X182357143Y-121954819D02*
X182595238Y-121954819D01*
X182595238Y-121954819D02*
X182738095Y-122002438D01*
X183071429Y-121954819D02*
X183309524Y-122954819D01*
X183309524Y-122954819D02*
X183500000Y-122240533D01*
X183500000Y-122240533D02*
X183690476Y-122954819D01*
X183690476Y-122954819D02*
X183928572Y-121954819D01*
X184261905Y-122050057D02*
X184309524Y-122002438D01*
X184309524Y-122002438D02*
X184404762Y-121954819D01*
X184404762Y-121954819D02*
X184642857Y-121954819D01*
X184642857Y-121954819D02*
X184738095Y-122002438D01*
X184738095Y-122002438D02*
X184785714Y-122050057D01*
X184785714Y-122050057D02*
X184833333Y-122145295D01*
X184833333Y-122145295D02*
X184833333Y-122240533D01*
X184833333Y-122240533D02*
X184785714Y-122383390D01*
X184785714Y-122383390D02*
X184214286Y-122954819D01*
X184214286Y-122954819D02*
X184833333Y-122954819D01*
X211007142Y-87854819D02*
X210673809Y-87378628D01*
X210435714Y-87854819D02*
X210435714Y-86854819D01*
X210435714Y-86854819D02*
X210816666Y-86854819D01*
X210816666Y-86854819D02*
X210911904Y-86902438D01*
X210911904Y-86902438D02*
X210959523Y-86950057D01*
X210959523Y-86950057D02*
X211007142Y-87045295D01*
X211007142Y-87045295D02*
X211007142Y-87188152D01*
X211007142Y-87188152D02*
X210959523Y-87283390D01*
X210959523Y-87283390D02*
X210911904Y-87331009D01*
X210911904Y-87331009D02*
X210816666Y-87378628D01*
X210816666Y-87378628D02*
X210435714Y-87378628D01*
X211959523Y-87854819D02*
X211388095Y-87854819D01*
X211673809Y-87854819D02*
X211673809Y-86854819D01*
X211673809Y-86854819D02*
X211578571Y-86997676D01*
X211578571Y-86997676D02*
X211483333Y-87092914D01*
X211483333Y-87092914D02*
X211388095Y-87140533D01*
X212578571Y-86854819D02*
X212673809Y-86854819D01*
X212673809Y-86854819D02*
X212769047Y-86902438D01*
X212769047Y-86902438D02*
X212816666Y-86950057D01*
X212816666Y-86950057D02*
X212864285Y-87045295D01*
X212864285Y-87045295D02*
X212911904Y-87235771D01*
X212911904Y-87235771D02*
X212911904Y-87473866D01*
X212911904Y-87473866D02*
X212864285Y-87664342D01*
X212864285Y-87664342D02*
X212816666Y-87759580D01*
X212816666Y-87759580D02*
X212769047Y-87807200D01*
X212769047Y-87807200D02*
X212673809Y-87854819D01*
X212673809Y-87854819D02*
X212578571Y-87854819D01*
X212578571Y-87854819D02*
X212483333Y-87807200D01*
X212483333Y-87807200D02*
X212435714Y-87759580D01*
X212435714Y-87759580D02*
X212388095Y-87664342D01*
X212388095Y-87664342D02*
X212340476Y-87473866D01*
X212340476Y-87473866D02*
X212340476Y-87235771D01*
X212340476Y-87235771D02*
X212388095Y-87045295D01*
X212388095Y-87045295D02*
X212435714Y-86950057D01*
X212435714Y-86950057D02*
X212483333Y-86902438D01*
X212483333Y-86902438D02*
X212578571Y-86854819D01*
X213633333Y-66554819D02*
X213300000Y-66078628D01*
X213061905Y-66554819D02*
X213061905Y-65554819D01*
X213061905Y-65554819D02*
X213442857Y-65554819D01*
X213442857Y-65554819D02*
X213538095Y-65602438D01*
X213538095Y-65602438D02*
X213585714Y-65650057D01*
X213585714Y-65650057D02*
X213633333Y-65745295D01*
X213633333Y-65745295D02*
X213633333Y-65888152D01*
X213633333Y-65888152D02*
X213585714Y-65983390D01*
X213585714Y-65983390D02*
X213538095Y-66031009D01*
X213538095Y-66031009D02*
X213442857Y-66078628D01*
X213442857Y-66078628D02*
X213061905Y-66078628D01*
X214204762Y-65983390D02*
X214109524Y-65935771D01*
X214109524Y-65935771D02*
X214061905Y-65888152D01*
X214061905Y-65888152D02*
X214014286Y-65792914D01*
X214014286Y-65792914D02*
X214014286Y-65745295D01*
X214014286Y-65745295D02*
X214061905Y-65650057D01*
X214061905Y-65650057D02*
X214109524Y-65602438D01*
X214109524Y-65602438D02*
X214204762Y-65554819D01*
X214204762Y-65554819D02*
X214395238Y-65554819D01*
X214395238Y-65554819D02*
X214490476Y-65602438D01*
X214490476Y-65602438D02*
X214538095Y-65650057D01*
X214538095Y-65650057D02*
X214585714Y-65745295D01*
X214585714Y-65745295D02*
X214585714Y-65792914D01*
X214585714Y-65792914D02*
X214538095Y-65888152D01*
X214538095Y-65888152D02*
X214490476Y-65935771D01*
X214490476Y-65935771D02*
X214395238Y-65983390D01*
X214395238Y-65983390D02*
X214204762Y-65983390D01*
X214204762Y-65983390D02*
X214109524Y-66031009D01*
X214109524Y-66031009D02*
X214061905Y-66078628D01*
X214061905Y-66078628D02*
X214014286Y-66173866D01*
X214014286Y-66173866D02*
X214014286Y-66364342D01*
X214014286Y-66364342D02*
X214061905Y-66459580D01*
X214061905Y-66459580D02*
X214109524Y-66507200D01*
X214109524Y-66507200D02*
X214204762Y-66554819D01*
X214204762Y-66554819D02*
X214395238Y-66554819D01*
X214395238Y-66554819D02*
X214490476Y-66507200D01*
X214490476Y-66507200D02*
X214538095Y-66459580D01*
X214538095Y-66459580D02*
X214585714Y-66364342D01*
X214585714Y-66364342D02*
X214585714Y-66173866D01*
X214585714Y-66173866D02*
X214538095Y-66078628D01*
X214538095Y-66078628D02*
X214490476Y-66031009D01*
X214490476Y-66031009D02*
X214395238Y-65983390D01*
X221233333Y-87759580D02*
X221185714Y-87807200D01*
X221185714Y-87807200D02*
X221042857Y-87854819D01*
X221042857Y-87854819D02*
X220947619Y-87854819D01*
X220947619Y-87854819D02*
X220804762Y-87807200D01*
X220804762Y-87807200D02*
X220709524Y-87711961D01*
X220709524Y-87711961D02*
X220661905Y-87616723D01*
X220661905Y-87616723D02*
X220614286Y-87426247D01*
X220614286Y-87426247D02*
X220614286Y-87283390D01*
X220614286Y-87283390D02*
X220661905Y-87092914D01*
X220661905Y-87092914D02*
X220709524Y-86997676D01*
X220709524Y-86997676D02*
X220804762Y-86902438D01*
X220804762Y-86902438D02*
X220947619Y-86854819D01*
X220947619Y-86854819D02*
X221042857Y-86854819D01*
X221042857Y-86854819D02*
X221185714Y-86902438D01*
X221185714Y-86902438D02*
X221233333Y-86950057D01*
X221614286Y-86950057D02*
X221661905Y-86902438D01*
X221661905Y-86902438D02*
X221757143Y-86854819D01*
X221757143Y-86854819D02*
X221995238Y-86854819D01*
X221995238Y-86854819D02*
X222090476Y-86902438D01*
X222090476Y-86902438D02*
X222138095Y-86950057D01*
X222138095Y-86950057D02*
X222185714Y-87045295D01*
X222185714Y-87045295D02*
X222185714Y-87140533D01*
X222185714Y-87140533D02*
X222138095Y-87283390D01*
X222138095Y-87283390D02*
X221566667Y-87854819D01*
X221566667Y-87854819D02*
X222185714Y-87854819D01*
X198666667Y-122907200D02*
X198809524Y-122954819D01*
X198809524Y-122954819D02*
X199047619Y-122954819D01*
X199047619Y-122954819D02*
X199142857Y-122907200D01*
X199142857Y-122907200D02*
X199190476Y-122859580D01*
X199190476Y-122859580D02*
X199238095Y-122764342D01*
X199238095Y-122764342D02*
X199238095Y-122669104D01*
X199238095Y-122669104D02*
X199190476Y-122573866D01*
X199190476Y-122573866D02*
X199142857Y-122526247D01*
X199142857Y-122526247D02*
X199047619Y-122478628D01*
X199047619Y-122478628D02*
X198857143Y-122431009D01*
X198857143Y-122431009D02*
X198761905Y-122383390D01*
X198761905Y-122383390D02*
X198714286Y-122335771D01*
X198714286Y-122335771D02*
X198666667Y-122240533D01*
X198666667Y-122240533D02*
X198666667Y-122145295D01*
X198666667Y-122145295D02*
X198714286Y-122050057D01*
X198714286Y-122050057D02*
X198761905Y-122002438D01*
X198761905Y-122002438D02*
X198857143Y-121954819D01*
X198857143Y-121954819D02*
X199095238Y-121954819D01*
X199095238Y-121954819D02*
X199238095Y-122002438D01*
X199571429Y-121954819D02*
X199809524Y-122954819D01*
X199809524Y-122954819D02*
X200000000Y-122240533D01*
X200000000Y-122240533D02*
X200190476Y-122954819D01*
X200190476Y-122954819D02*
X200428572Y-121954819D01*
X201238095Y-122288152D02*
X201238095Y-122954819D01*
X201000000Y-121907200D02*
X200761905Y-122621485D01*
X200761905Y-122621485D02*
X201380952Y-122621485D01*
X161038095Y-85654819D02*
X161038095Y-86464342D01*
X161038095Y-86464342D02*
X161085714Y-86559580D01*
X161085714Y-86559580D02*
X161133333Y-86607200D01*
X161133333Y-86607200D02*
X161228571Y-86654819D01*
X161228571Y-86654819D02*
X161419047Y-86654819D01*
X161419047Y-86654819D02*
X161514285Y-86607200D01*
X161514285Y-86607200D02*
X161561904Y-86559580D01*
X161561904Y-86559580D02*
X161609523Y-86464342D01*
X161609523Y-86464342D02*
X161609523Y-85654819D01*
X161990476Y-85654819D02*
X162609523Y-85654819D01*
X162609523Y-85654819D02*
X162276190Y-86035771D01*
X162276190Y-86035771D02*
X162419047Y-86035771D01*
X162419047Y-86035771D02*
X162514285Y-86083390D01*
X162514285Y-86083390D02*
X162561904Y-86131009D01*
X162561904Y-86131009D02*
X162609523Y-86226247D01*
X162609523Y-86226247D02*
X162609523Y-86464342D01*
X162609523Y-86464342D02*
X162561904Y-86559580D01*
X162561904Y-86559580D02*
X162514285Y-86607200D01*
X162514285Y-86607200D02*
X162419047Y-86654819D01*
X162419047Y-86654819D02*
X162133333Y-86654819D01*
X162133333Y-86654819D02*
X162038095Y-86607200D01*
X162038095Y-86607200D02*
X161990476Y-86559580D01*
X154266666Y-99854819D02*
X154266666Y-100569104D01*
X154266666Y-100569104D02*
X154219047Y-100711961D01*
X154219047Y-100711961D02*
X154123809Y-100807200D01*
X154123809Y-100807200D02*
X153980952Y-100854819D01*
X153980952Y-100854819D02*
X153885714Y-100854819D01*
X155171428Y-99854819D02*
X154980952Y-99854819D01*
X154980952Y-99854819D02*
X154885714Y-99902438D01*
X154885714Y-99902438D02*
X154838095Y-99950057D01*
X154838095Y-99950057D02*
X154742857Y-100092914D01*
X154742857Y-100092914D02*
X154695238Y-100283390D01*
X154695238Y-100283390D02*
X154695238Y-100664342D01*
X154695238Y-100664342D02*
X154742857Y-100759580D01*
X154742857Y-100759580D02*
X154790476Y-100807200D01*
X154790476Y-100807200D02*
X154885714Y-100854819D01*
X154885714Y-100854819D02*
X155076190Y-100854819D01*
X155076190Y-100854819D02*
X155171428Y-100807200D01*
X155171428Y-100807200D02*
X155219047Y-100759580D01*
X155219047Y-100759580D02*
X155266666Y-100664342D01*
X155266666Y-100664342D02*
X155266666Y-100426247D01*
X155266666Y-100426247D02*
X155219047Y-100331009D01*
X155219047Y-100331009D02*
X155171428Y-100283390D01*
X155171428Y-100283390D02*
X155076190Y-100235771D01*
X155076190Y-100235771D02*
X154885714Y-100235771D01*
X154885714Y-100235771D02*
X154790476Y-100283390D01*
X154790476Y-100283390D02*
X154742857Y-100331009D01*
X154742857Y-100331009D02*
X154695238Y-100426247D01*
X170291905Y-118454819D02*
X170291905Y-117454819D01*
X170291905Y-117454819D02*
X170530000Y-117454819D01*
X170530000Y-117454819D02*
X170672857Y-117502438D01*
X170672857Y-117502438D02*
X170768095Y-117597676D01*
X170768095Y-117597676D02*
X170815714Y-117692914D01*
X170815714Y-117692914D02*
X170863333Y-117883390D01*
X170863333Y-117883390D02*
X170863333Y-118026247D01*
X170863333Y-118026247D02*
X170815714Y-118216723D01*
X170815714Y-118216723D02*
X170768095Y-118311961D01*
X170768095Y-118311961D02*
X170672857Y-118407200D01*
X170672857Y-118407200D02*
X170530000Y-118454819D01*
X170530000Y-118454819D02*
X170291905Y-118454819D01*
X171815714Y-118454819D02*
X171244286Y-118454819D01*
X171530000Y-118454819D02*
X171530000Y-117454819D01*
X171530000Y-117454819D02*
X171434762Y-117597676D01*
X171434762Y-117597676D02*
X171339524Y-117692914D01*
X171339524Y-117692914D02*
X171244286Y-117740533D01*
X166761905Y-118454819D02*
X166761905Y-117454819D01*
X166761905Y-117454819D02*
X167000000Y-117454819D01*
X167000000Y-117454819D02*
X167142857Y-117502438D01*
X167142857Y-117502438D02*
X167238095Y-117597676D01*
X167238095Y-117597676D02*
X167285714Y-117692914D01*
X167285714Y-117692914D02*
X167333333Y-117883390D01*
X167333333Y-117883390D02*
X167333333Y-118026247D01*
X167333333Y-118026247D02*
X167285714Y-118216723D01*
X167285714Y-118216723D02*
X167238095Y-118311961D01*
X167238095Y-118311961D02*
X167142857Y-118407200D01*
X167142857Y-118407200D02*
X167000000Y-118454819D01*
X167000000Y-118454819D02*
X166761905Y-118454819D01*
X167666667Y-117454819D02*
X168285714Y-117454819D01*
X168285714Y-117454819D02*
X167952381Y-117835771D01*
X167952381Y-117835771D02*
X168095238Y-117835771D01*
X168095238Y-117835771D02*
X168190476Y-117883390D01*
X168190476Y-117883390D02*
X168238095Y-117931009D01*
X168238095Y-117931009D02*
X168285714Y-118026247D01*
X168285714Y-118026247D02*
X168285714Y-118264342D01*
X168285714Y-118264342D02*
X168238095Y-118359580D01*
X168238095Y-118359580D02*
X168190476Y-118407200D01*
X168190476Y-118407200D02*
X168095238Y-118454819D01*
X168095238Y-118454819D02*
X167809524Y-118454819D01*
X167809524Y-118454819D02*
X167714286Y-118407200D01*
X167714286Y-118407200D02*
X167666667Y-118359580D01*
X178157142Y-97359580D02*
X178109523Y-97407200D01*
X178109523Y-97407200D02*
X177966666Y-97454819D01*
X177966666Y-97454819D02*
X177871428Y-97454819D01*
X177871428Y-97454819D02*
X177728571Y-97407200D01*
X177728571Y-97407200D02*
X177633333Y-97311961D01*
X177633333Y-97311961D02*
X177585714Y-97216723D01*
X177585714Y-97216723D02*
X177538095Y-97026247D01*
X177538095Y-97026247D02*
X177538095Y-96883390D01*
X177538095Y-96883390D02*
X177585714Y-96692914D01*
X177585714Y-96692914D02*
X177633333Y-96597676D01*
X177633333Y-96597676D02*
X177728571Y-96502438D01*
X177728571Y-96502438D02*
X177871428Y-96454819D01*
X177871428Y-96454819D02*
X177966666Y-96454819D01*
X177966666Y-96454819D02*
X178109523Y-96502438D01*
X178109523Y-96502438D02*
X178157142Y-96550057D01*
X179109523Y-97454819D02*
X178538095Y-97454819D01*
X178823809Y-97454819D02*
X178823809Y-96454819D01*
X178823809Y-96454819D02*
X178728571Y-96597676D01*
X178728571Y-96597676D02*
X178633333Y-96692914D01*
X178633333Y-96692914D02*
X178538095Y-96740533D01*
X179442857Y-96454819D02*
X180061904Y-96454819D01*
X180061904Y-96454819D02*
X179728571Y-96835771D01*
X179728571Y-96835771D02*
X179871428Y-96835771D01*
X179871428Y-96835771D02*
X179966666Y-96883390D01*
X179966666Y-96883390D02*
X180014285Y-96931009D01*
X180014285Y-96931009D02*
X180061904Y-97026247D01*
X180061904Y-97026247D02*
X180061904Y-97264342D01*
X180061904Y-97264342D02*
X180014285Y-97359580D01*
X180014285Y-97359580D02*
X179966666Y-97407200D01*
X179966666Y-97407200D02*
X179871428Y-97454819D01*
X179871428Y-97454819D02*
X179585714Y-97454819D01*
X179585714Y-97454819D02*
X179490476Y-97407200D01*
X179490476Y-97407200D02*
X179442857Y-97359580D01*
X153320833Y-84759580D02*
X153273214Y-84807200D01*
X153273214Y-84807200D02*
X153130357Y-84854819D01*
X153130357Y-84854819D02*
X153035119Y-84854819D01*
X153035119Y-84854819D02*
X152892262Y-84807200D01*
X152892262Y-84807200D02*
X152797024Y-84711961D01*
X152797024Y-84711961D02*
X152749405Y-84616723D01*
X152749405Y-84616723D02*
X152701786Y-84426247D01*
X152701786Y-84426247D02*
X152701786Y-84283390D01*
X152701786Y-84283390D02*
X152749405Y-84092914D01*
X152749405Y-84092914D02*
X152797024Y-83997676D01*
X152797024Y-83997676D02*
X152892262Y-83902438D01*
X152892262Y-83902438D02*
X153035119Y-83854819D01*
X153035119Y-83854819D02*
X153130357Y-83854819D01*
X153130357Y-83854819D02*
X153273214Y-83902438D01*
X153273214Y-83902438D02*
X153320833Y-83950057D01*
X153892262Y-84283390D02*
X153797024Y-84235771D01*
X153797024Y-84235771D02*
X153749405Y-84188152D01*
X153749405Y-84188152D02*
X153701786Y-84092914D01*
X153701786Y-84092914D02*
X153701786Y-84045295D01*
X153701786Y-84045295D02*
X153749405Y-83950057D01*
X153749405Y-83950057D02*
X153797024Y-83902438D01*
X153797024Y-83902438D02*
X153892262Y-83854819D01*
X153892262Y-83854819D02*
X154082738Y-83854819D01*
X154082738Y-83854819D02*
X154177976Y-83902438D01*
X154177976Y-83902438D02*
X154225595Y-83950057D01*
X154225595Y-83950057D02*
X154273214Y-84045295D01*
X154273214Y-84045295D02*
X154273214Y-84092914D01*
X154273214Y-84092914D02*
X154225595Y-84188152D01*
X154225595Y-84188152D02*
X154177976Y-84235771D01*
X154177976Y-84235771D02*
X154082738Y-84283390D01*
X154082738Y-84283390D02*
X153892262Y-84283390D01*
X153892262Y-84283390D02*
X153797024Y-84331009D01*
X153797024Y-84331009D02*
X153749405Y-84378628D01*
X153749405Y-84378628D02*
X153701786Y-84473866D01*
X153701786Y-84473866D02*
X153701786Y-84664342D01*
X153701786Y-84664342D02*
X153749405Y-84759580D01*
X153749405Y-84759580D02*
X153797024Y-84807200D01*
X153797024Y-84807200D02*
X153892262Y-84854819D01*
X153892262Y-84854819D02*
X154082738Y-84854819D01*
X154082738Y-84854819D02*
X154177976Y-84807200D01*
X154177976Y-84807200D02*
X154225595Y-84759580D01*
X154225595Y-84759580D02*
X154273214Y-84664342D01*
X154273214Y-84664342D02*
X154273214Y-84473866D01*
X154273214Y-84473866D02*
X154225595Y-84378628D01*
X154225595Y-84378628D02*
X154177976Y-84331009D01*
X154177976Y-84331009D02*
X154082738Y-84283390D01*
X181666666Y-66104819D02*
X181666666Y-66819104D01*
X181666666Y-66819104D02*
X181619047Y-66961961D01*
X181619047Y-66961961D02*
X181523809Y-67057200D01*
X181523809Y-67057200D02*
X181380952Y-67104819D01*
X181380952Y-67104819D02*
X181285714Y-67104819D01*
X182095238Y-66200057D02*
X182142857Y-66152438D01*
X182142857Y-66152438D02*
X182238095Y-66104819D01*
X182238095Y-66104819D02*
X182476190Y-66104819D01*
X182476190Y-66104819D02*
X182571428Y-66152438D01*
X182571428Y-66152438D02*
X182619047Y-66200057D01*
X182619047Y-66200057D02*
X182666666Y-66295295D01*
X182666666Y-66295295D02*
X182666666Y-66390533D01*
X182666666Y-66390533D02*
X182619047Y-66533390D01*
X182619047Y-66533390D02*
X182047619Y-67104819D01*
X182047619Y-67104819D02*
X182666666Y-67104819D01*
X213633333Y-69259580D02*
X213585714Y-69307200D01*
X213585714Y-69307200D02*
X213442857Y-69354819D01*
X213442857Y-69354819D02*
X213347619Y-69354819D01*
X213347619Y-69354819D02*
X213204762Y-69307200D01*
X213204762Y-69307200D02*
X213109524Y-69211961D01*
X213109524Y-69211961D02*
X213061905Y-69116723D01*
X213061905Y-69116723D02*
X213014286Y-68926247D01*
X213014286Y-68926247D02*
X213014286Y-68783390D01*
X213014286Y-68783390D02*
X213061905Y-68592914D01*
X213061905Y-68592914D02*
X213109524Y-68497676D01*
X213109524Y-68497676D02*
X213204762Y-68402438D01*
X213204762Y-68402438D02*
X213347619Y-68354819D01*
X213347619Y-68354819D02*
X213442857Y-68354819D01*
X213442857Y-68354819D02*
X213585714Y-68402438D01*
X213585714Y-68402438D02*
X213633333Y-68450057D01*
X213966667Y-68354819D02*
X214585714Y-68354819D01*
X214585714Y-68354819D02*
X214252381Y-68735771D01*
X214252381Y-68735771D02*
X214395238Y-68735771D01*
X214395238Y-68735771D02*
X214490476Y-68783390D01*
X214490476Y-68783390D02*
X214538095Y-68831009D01*
X214538095Y-68831009D02*
X214585714Y-68926247D01*
X214585714Y-68926247D02*
X214585714Y-69164342D01*
X214585714Y-69164342D02*
X214538095Y-69259580D01*
X214538095Y-69259580D02*
X214490476Y-69307200D01*
X214490476Y-69307200D02*
X214395238Y-69354819D01*
X214395238Y-69354819D02*
X214109524Y-69354819D01*
X214109524Y-69354819D02*
X214014286Y-69307200D01*
X214014286Y-69307200D02*
X213966667Y-69259580D01*
X188857142Y-79104819D02*
X188523809Y-78628628D01*
X188285714Y-79104819D02*
X188285714Y-78104819D01*
X188285714Y-78104819D02*
X188666666Y-78104819D01*
X188666666Y-78104819D02*
X188761904Y-78152438D01*
X188761904Y-78152438D02*
X188809523Y-78200057D01*
X188809523Y-78200057D02*
X188857142Y-78295295D01*
X188857142Y-78295295D02*
X188857142Y-78438152D01*
X188857142Y-78438152D02*
X188809523Y-78533390D01*
X188809523Y-78533390D02*
X188761904Y-78581009D01*
X188761904Y-78581009D02*
X188666666Y-78628628D01*
X188666666Y-78628628D02*
X188285714Y-78628628D01*
X189809523Y-79104819D02*
X189238095Y-79104819D01*
X189523809Y-79104819D02*
X189523809Y-78104819D01*
X189523809Y-78104819D02*
X189428571Y-78247676D01*
X189428571Y-78247676D02*
X189333333Y-78342914D01*
X189333333Y-78342914D02*
X189238095Y-78390533D01*
X190190476Y-78200057D02*
X190238095Y-78152438D01*
X190238095Y-78152438D02*
X190333333Y-78104819D01*
X190333333Y-78104819D02*
X190571428Y-78104819D01*
X190571428Y-78104819D02*
X190666666Y-78152438D01*
X190666666Y-78152438D02*
X190714285Y-78200057D01*
X190714285Y-78200057D02*
X190761904Y-78295295D01*
X190761904Y-78295295D02*
X190761904Y-78390533D01*
X190761904Y-78390533D02*
X190714285Y-78533390D01*
X190714285Y-78533390D02*
X190142857Y-79104819D01*
X190142857Y-79104819D02*
X190761904Y-79104819D01*
X218833333Y-79054819D02*
X218357143Y-79054819D01*
X218357143Y-79054819D02*
X218357143Y-78054819D01*
X219690476Y-79054819D02*
X219119048Y-79054819D01*
X219404762Y-79054819D02*
X219404762Y-78054819D01*
X219404762Y-78054819D02*
X219309524Y-78197676D01*
X219309524Y-78197676D02*
X219214286Y-78292914D01*
X219214286Y-78292914D02*
X219119048Y-78340533D01*
X198496666Y-49534819D02*
X198496666Y-50249104D01*
X198496666Y-50249104D02*
X198449047Y-50391961D01*
X198449047Y-50391961D02*
X198353809Y-50487200D01*
X198353809Y-50487200D02*
X198210952Y-50534819D01*
X198210952Y-50534819D02*
X198115714Y-50534819D01*
X198877619Y-49534819D02*
X199496666Y-49534819D01*
X199496666Y-49534819D02*
X199163333Y-49915771D01*
X199163333Y-49915771D02*
X199306190Y-49915771D01*
X199306190Y-49915771D02*
X199401428Y-49963390D01*
X199401428Y-49963390D02*
X199449047Y-50011009D01*
X199449047Y-50011009D02*
X199496666Y-50106247D01*
X199496666Y-50106247D02*
X199496666Y-50344342D01*
X199496666Y-50344342D02*
X199449047Y-50439580D01*
X199449047Y-50439580D02*
X199401428Y-50487200D01*
X199401428Y-50487200D02*
X199306190Y-50534819D01*
X199306190Y-50534819D02*
X199020476Y-50534819D01*
X199020476Y-50534819D02*
X198925238Y-50487200D01*
X198925238Y-50487200D02*
X198877619Y-50439580D01*
X239904819Y-113083333D02*
X240619104Y-113083333D01*
X240619104Y-113083333D02*
X240761961Y-113130952D01*
X240761961Y-113130952D02*
X240857200Y-113226190D01*
X240857200Y-113226190D02*
X240904819Y-113369047D01*
X240904819Y-113369047D02*
X240904819Y-113464285D01*
X239904819Y-112130952D02*
X239904819Y-112607142D01*
X239904819Y-112607142D02*
X240381009Y-112654761D01*
X240381009Y-112654761D02*
X240333390Y-112607142D01*
X240333390Y-112607142D02*
X240285771Y-112511904D01*
X240285771Y-112511904D02*
X240285771Y-112273809D01*
X240285771Y-112273809D02*
X240333390Y-112178571D01*
X240333390Y-112178571D02*
X240381009Y-112130952D01*
X240381009Y-112130952D02*
X240476247Y-112083333D01*
X240476247Y-112083333D02*
X240714342Y-112083333D01*
X240714342Y-112083333D02*
X240809580Y-112130952D01*
X240809580Y-112130952D02*
X240857200Y-112178571D01*
X240857200Y-112178571D02*
X240904819Y-112273809D01*
X240904819Y-112273809D02*
X240904819Y-112511904D01*
X240904819Y-112511904D02*
X240857200Y-112607142D01*
X240857200Y-112607142D02*
X240809580Y-112654761D01*
X163870833Y-99039580D02*
X163823214Y-99087200D01*
X163823214Y-99087200D02*
X163680357Y-99134819D01*
X163680357Y-99134819D02*
X163585119Y-99134819D01*
X163585119Y-99134819D02*
X163442262Y-99087200D01*
X163442262Y-99087200D02*
X163347024Y-98991961D01*
X163347024Y-98991961D02*
X163299405Y-98896723D01*
X163299405Y-98896723D02*
X163251786Y-98706247D01*
X163251786Y-98706247D02*
X163251786Y-98563390D01*
X163251786Y-98563390D02*
X163299405Y-98372914D01*
X163299405Y-98372914D02*
X163347024Y-98277676D01*
X163347024Y-98277676D02*
X163442262Y-98182438D01*
X163442262Y-98182438D02*
X163585119Y-98134819D01*
X163585119Y-98134819D02*
X163680357Y-98134819D01*
X163680357Y-98134819D02*
X163823214Y-98182438D01*
X163823214Y-98182438D02*
X163870833Y-98230057D01*
X164727976Y-98134819D02*
X164537500Y-98134819D01*
X164537500Y-98134819D02*
X164442262Y-98182438D01*
X164442262Y-98182438D02*
X164394643Y-98230057D01*
X164394643Y-98230057D02*
X164299405Y-98372914D01*
X164299405Y-98372914D02*
X164251786Y-98563390D01*
X164251786Y-98563390D02*
X164251786Y-98944342D01*
X164251786Y-98944342D02*
X164299405Y-99039580D01*
X164299405Y-99039580D02*
X164347024Y-99087200D01*
X164347024Y-99087200D02*
X164442262Y-99134819D01*
X164442262Y-99134819D02*
X164632738Y-99134819D01*
X164632738Y-99134819D02*
X164727976Y-99087200D01*
X164727976Y-99087200D02*
X164775595Y-99039580D01*
X164775595Y-99039580D02*
X164823214Y-98944342D01*
X164823214Y-98944342D02*
X164823214Y-98706247D01*
X164823214Y-98706247D02*
X164775595Y-98611009D01*
X164775595Y-98611009D02*
X164727976Y-98563390D01*
X164727976Y-98563390D02*
X164632738Y-98515771D01*
X164632738Y-98515771D02*
X164442262Y-98515771D01*
X164442262Y-98515771D02*
X164347024Y-98563390D01*
X164347024Y-98563390D02*
X164299405Y-98611009D01*
X164299405Y-98611009D02*
X164251786Y-98706247D01*
X177638095Y-85654819D02*
X177638095Y-86464342D01*
X177638095Y-86464342D02*
X177685714Y-86559580D01*
X177685714Y-86559580D02*
X177733333Y-86607200D01*
X177733333Y-86607200D02*
X177828571Y-86654819D01*
X177828571Y-86654819D02*
X178019047Y-86654819D01*
X178019047Y-86654819D02*
X178114285Y-86607200D01*
X178114285Y-86607200D02*
X178161904Y-86559580D01*
X178161904Y-86559580D02*
X178209523Y-86464342D01*
X178209523Y-86464342D02*
X178209523Y-85654819D01*
X179114285Y-85988152D02*
X179114285Y-86654819D01*
X178876190Y-85607200D02*
X178638095Y-86321485D01*
X178638095Y-86321485D02*
X179257142Y-86321485D01*
X213633333Y-59859580D02*
X213585714Y-59907200D01*
X213585714Y-59907200D02*
X213442857Y-59954819D01*
X213442857Y-59954819D02*
X213347619Y-59954819D01*
X213347619Y-59954819D02*
X213204762Y-59907200D01*
X213204762Y-59907200D02*
X213109524Y-59811961D01*
X213109524Y-59811961D02*
X213061905Y-59716723D01*
X213061905Y-59716723D02*
X213014286Y-59526247D01*
X213014286Y-59526247D02*
X213014286Y-59383390D01*
X213014286Y-59383390D02*
X213061905Y-59192914D01*
X213061905Y-59192914D02*
X213109524Y-59097676D01*
X213109524Y-59097676D02*
X213204762Y-59002438D01*
X213204762Y-59002438D02*
X213347619Y-58954819D01*
X213347619Y-58954819D02*
X213442857Y-58954819D01*
X213442857Y-58954819D02*
X213585714Y-59002438D01*
X213585714Y-59002438D02*
X213633333Y-59050057D01*
X214490476Y-59288152D02*
X214490476Y-59954819D01*
X214252381Y-58907200D02*
X214014286Y-59621485D01*
X214014286Y-59621485D02*
X214633333Y-59621485D01*
X189157142Y-92654819D02*
X188823809Y-92178628D01*
X188585714Y-92654819D02*
X188585714Y-91654819D01*
X188585714Y-91654819D02*
X188966666Y-91654819D01*
X188966666Y-91654819D02*
X189061904Y-91702438D01*
X189061904Y-91702438D02*
X189109523Y-91750057D01*
X189109523Y-91750057D02*
X189157142Y-91845295D01*
X189157142Y-91845295D02*
X189157142Y-91988152D01*
X189157142Y-91988152D02*
X189109523Y-92083390D01*
X189109523Y-92083390D02*
X189061904Y-92131009D01*
X189061904Y-92131009D02*
X188966666Y-92178628D01*
X188966666Y-92178628D02*
X188585714Y-92178628D01*
X190109523Y-92654819D02*
X189538095Y-92654819D01*
X189823809Y-92654819D02*
X189823809Y-91654819D01*
X189823809Y-91654819D02*
X189728571Y-91797676D01*
X189728571Y-91797676D02*
X189633333Y-91892914D01*
X189633333Y-91892914D02*
X189538095Y-91940533D01*
X190442857Y-91654819D02*
X191061904Y-91654819D01*
X191061904Y-91654819D02*
X190728571Y-92035771D01*
X190728571Y-92035771D02*
X190871428Y-92035771D01*
X190871428Y-92035771D02*
X190966666Y-92083390D01*
X190966666Y-92083390D02*
X191014285Y-92131009D01*
X191014285Y-92131009D02*
X191061904Y-92226247D01*
X191061904Y-92226247D02*
X191061904Y-92464342D01*
X191061904Y-92464342D02*
X191014285Y-92559580D01*
X191014285Y-92559580D02*
X190966666Y-92607200D01*
X190966666Y-92607200D02*
X190871428Y-92654819D01*
X190871428Y-92654819D02*
X190585714Y-92654819D01*
X190585714Y-92654819D02*
X190490476Y-92607200D01*
X190490476Y-92607200D02*
X190442857Y-92559580D01*
X189183333Y-86054819D02*
X188850000Y-85578628D01*
X188611905Y-86054819D02*
X188611905Y-85054819D01*
X188611905Y-85054819D02*
X188992857Y-85054819D01*
X188992857Y-85054819D02*
X189088095Y-85102438D01*
X189088095Y-85102438D02*
X189135714Y-85150057D01*
X189135714Y-85150057D02*
X189183333Y-85245295D01*
X189183333Y-85245295D02*
X189183333Y-85388152D01*
X189183333Y-85388152D02*
X189135714Y-85483390D01*
X189135714Y-85483390D02*
X189088095Y-85531009D01*
X189088095Y-85531009D02*
X188992857Y-85578628D01*
X188992857Y-85578628D02*
X188611905Y-85578628D01*
X190040476Y-85054819D02*
X189850000Y-85054819D01*
X189850000Y-85054819D02*
X189754762Y-85102438D01*
X189754762Y-85102438D02*
X189707143Y-85150057D01*
X189707143Y-85150057D02*
X189611905Y-85292914D01*
X189611905Y-85292914D02*
X189564286Y-85483390D01*
X189564286Y-85483390D02*
X189564286Y-85864342D01*
X189564286Y-85864342D02*
X189611905Y-85959580D01*
X189611905Y-85959580D02*
X189659524Y-86007200D01*
X189659524Y-86007200D02*
X189754762Y-86054819D01*
X189754762Y-86054819D02*
X189945238Y-86054819D01*
X189945238Y-86054819D02*
X190040476Y-86007200D01*
X190040476Y-86007200D02*
X190088095Y-85959580D01*
X190088095Y-85959580D02*
X190135714Y-85864342D01*
X190135714Y-85864342D02*
X190135714Y-85626247D01*
X190135714Y-85626247D02*
X190088095Y-85531009D01*
X190088095Y-85531009D02*
X190040476Y-85483390D01*
X190040476Y-85483390D02*
X189945238Y-85435771D01*
X189945238Y-85435771D02*
X189754762Y-85435771D01*
X189754762Y-85435771D02*
X189659524Y-85483390D01*
X189659524Y-85483390D02*
X189611905Y-85531009D01*
X189611905Y-85531009D02*
X189564286Y-85626247D01*
X173651905Y-118454819D02*
X173651905Y-117454819D01*
X173651905Y-117454819D02*
X173890000Y-117454819D01*
X173890000Y-117454819D02*
X174032857Y-117502438D01*
X174032857Y-117502438D02*
X174128095Y-117597676D01*
X174128095Y-117597676D02*
X174175714Y-117692914D01*
X174175714Y-117692914D02*
X174223333Y-117883390D01*
X174223333Y-117883390D02*
X174223333Y-118026247D01*
X174223333Y-118026247D02*
X174175714Y-118216723D01*
X174175714Y-118216723D02*
X174128095Y-118311961D01*
X174128095Y-118311961D02*
X174032857Y-118407200D01*
X174032857Y-118407200D02*
X173890000Y-118454819D01*
X173890000Y-118454819D02*
X173651905Y-118454819D01*
X174604286Y-117550057D02*
X174651905Y-117502438D01*
X174651905Y-117502438D02*
X174747143Y-117454819D01*
X174747143Y-117454819D02*
X174985238Y-117454819D01*
X174985238Y-117454819D02*
X175080476Y-117502438D01*
X175080476Y-117502438D02*
X175128095Y-117550057D01*
X175128095Y-117550057D02*
X175175714Y-117645295D01*
X175175714Y-117645295D02*
X175175714Y-117740533D01*
X175175714Y-117740533D02*
X175128095Y-117883390D01*
X175128095Y-117883390D02*
X174556667Y-118454819D01*
X174556667Y-118454819D02*
X175175714Y-118454819D01*
X221333333Y-63054819D02*
X221000000Y-62578628D01*
X220761905Y-63054819D02*
X220761905Y-62054819D01*
X220761905Y-62054819D02*
X221142857Y-62054819D01*
X221142857Y-62054819D02*
X221238095Y-62102438D01*
X221238095Y-62102438D02*
X221285714Y-62150057D01*
X221285714Y-62150057D02*
X221333333Y-62245295D01*
X221333333Y-62245295D02*
X221333333Y-62388152D01*
X221333333Y-62388152D02*
X221285714Y-62483390D01*
X221285714Y-62483390D02*
X221238095Y-62531009D01*
X221238095Y-62531009D02*
X221142857Y-62578628D01*
X221142857Y-62578628D02*
X220761905Y-62578628D01*
X221714286Y-62150057D02*
X221761905Y-62102438D01*
X221761905Y-62102438D02*
X221857143Y-62054819D01*
X221857143Y-62054819D02*
X222095238Y-62054819D01*
X222095238Y-62054819D02*
X222190476Y-62102438D01*
X222190476Y-62102438D02*
X222238095Y-62150057D01*
X222238095Y-62150057D02*
X222285714Y-62245295D01*
X222285714Y-62245295D02*
X222285714Y-62340533D01*
X222285714Y-62340533D02*
X222238095Y-62483390D01*
X222238095Y-62483390D02*
X221666667Y-63054819D01*
X221666667Y-63054819D02*
X222285714Y-63054819D01*
X191763095Y-66569819D02*
X191763095Y-67379342D01*
X191763095Y-67379342D02*
X191810714Y-67474580D01*
X191810714Y-67474580D02*
X191858333Y-67522200D01*
X191858333Y-67522200D02*
X191953571Y-67569819D01*
X191953571Y-67569819D02*
X192144047Y-67569819D01*
X192144047Y-67569819D02*
X192239285Y-67522200D01*
X192239285Y-67522200D02*
X192286904Y-67474580D01*
X192286904Y-67474580D02*
X192334523Y-67379342D01*
X192334523Y-67379342D02*
X192334523Y-66569819D01*
X192763095Y-66665057D02*
X192810714Y-66617438D01*
X192810714Y-66617438D02*
X192905952Y-66569819D01*
X192905952Y-66569819D02*
X193144047Y-66569819D01*
X193144047Y-66569819D02*
X193239285Y-66617438D01*
X193239285Y-66617438D02*
X193286904Y-66665057D01*
X193286904Y-66665057D02*
X193334523Y-66760295D01*
X193334523Y-66760295D02*
X193334523Y-66855533D01*
X193334523Y-66855533D02*
X193286904Y-66998390D01*
X193286904Y-66998390D02*
X192715476Y-67569819D01*
X192715476Y-67569819D02*
X193334523Y-67569819D01*
X189157142Y-95854819D02*
X188823809Y-95378628D01*
X188585714Y-95854819D02*
X188585714Y-94854819D01*
X188585714Y-94854819D02*
X188966666Y-94854819D01*
X188966666Y-94854819D02*
X189061904Y-94902438D01*
X189061904Y-94902438D02*
X189109523Y-94950057D01*
X189109523Y-94950057D02*
X189157142Y-95045295D01*
X189157142Y-95045295D02*
X189157142Y-95188152D01*
X189157142Y-95188152D02*
X189109523Y-95283390D01*
X189109523Y-95283390D02*
X189061904Y-95331009D01*
X189061904Y-95331009D02*
X188966666Y-95378628D01*
X188966666Y-95378628D02*
X188585714Y-95378628D01*
X190109523Y-95854819D02*
X189538095Y-95854819D01*
X189823809Y-95854819D02*
X189823809Y-94854819D01*
X189823809Y-94854819D02*
X189728571Y-94997676D01*
X189728571Y-94997676D02*
X189633333Y-95092914D01*
X189633333Y-95092914D02*
X189538095Y-95140533D01*
X190966666Y-95188152D02*
X190966666Y-95854819D01*
X190728571Y-94807200D02*
X190490476Y-95521485D01*
X190490476Y-95521485D02*
X191109523Y-95521485D01*
X189183333Y-82739819D02*
X188850000Y-82263628D01*
X188611905Y-82739819D02*
X188611905Y-81739819D01*
X188611905Y-81739819D02*
X188992857Y-81739819D01*
X188992857Y-81739819D02*
X189088095Y-81787438D01*
X189088095Y-81787438D02*
X189135714Y-81835057D01*
X189135714Y-81835057D02*
X189183333Y-81930295D01*
X189183333Y-81930295D02*
X189183333Y-82073152D01*
X189183333Y-82073152D02*
X189135714Y-82168390D01*
X189135714Y-82168390D02*
X189088095Y-82216009D01*
X189088095Y-82216009D02*
X188992857Y-82263628D01*
X188992857Y-82263628D02*
X188611905Y-82263628D01*
X190088095Y-81739819D02*
X189611905Y-81739819D01*
X189611905Y-81739819D02*
X189564286Y-82216009D01*
X189564286Y-82216009D02*
X189611905Y-82168390D01*
X189611905Y-82168390D02*
X189707143Y-82120771D01*
X189707143Y-82120771D02*
X189945238Y-82120771D01*
X189945238Y-82120771D02*
X190040476Y-82168390D01*
X190040476Y-82168390D02*
X190088095Y-82216009D01*
X190088095Y-82216009D02*
X190135714Y-82311247D01*
X190135714Y-82311247D02*
X190135714Y-82549342D01*
X190135714Y-82549342D02*
X190088095Y-82644580D01*
X190088095Y-82644580D02*
X190040476Y-82692200D01*
X190040476Y-82692200D02*
X189945238Y-82739819D01*
X189945238Y-82739819D02*
X189707143Y-82739819D01*
X189707143Y-82739819D02*
X189611905Y-82692200D01*
X189611905Y-82692200D02*
X189564286Y-82644580D01*
X203363095Y-81934819D02*
X203363095Y-82744342D01*
X203363095Y-82744342D02*
X203410714Y-82839580D01*
X203410714Y-82839580D02*
X203458333Y-82887200D01*
X203458333Y-82887200D02*
X203553571Y-82934819D01*
X203553571Y-82934819D02*
X203744047Y-82934819D01*
X203744047Y-82934819D02*
X203839285Y-82887200D01*
X203839285Y-82887200D02*
X203886904Y-82839580D01*
X203886904Y-82839580D02*
X203934523Y-82744342D01*
X203934523Y-82744342D02*
X203934523Y-81934819D01*
X204934523Y-82934819D02*
X204363095Y-82934819D01*
X204648809Y-82934819D02*
X204648809Y-81934819D01*
X204648809Y-81934819D02*
X204553571Y-82077676D01*
X204553571Y-82077676D02*
X204458333Y-82172914D01*
X204458333Y-82172914D02*
X204363095Y-82220533D01*
D11*
%TO.C,SW3*%
X210390000Y-106640000D02*
X212900000Y-106640000D01*
X210390000Y-118860000D02*
X210390000Y-106640000D01*
X210390000Y-118860000D02*
X212900000Y-118860000D01*
X215200000Y-106640000D02*
X217800000Y-106640000D01*
X215200000Y-118860000D02*
X217800000Y-118860000D01*
X220100000Y-106640000D02*
X222610000Y-106640000D01*
X220100000Y-118860000D02*
X222610000Y-118860000D01*
X222610000Y-106640000D02*
X222610000Y-118860000D01*
X220050000Y-112750000D02*
G75*
G02*
X212950000Y-112750000I-3550000J0D01*
G01*
X212950000Y-112750000D02*
G75*
G02*
X220050000Y-112750000I3550000J0D01*
G01*
%TO.C,SW1*%
X226200000Y-106300000D02*
X229000000Y-106300000D01*
X226200000Y-111200000D02*
X226200000Y-106300000D01*
X226200000Y-119700000D02*
X226200000Y-114800000D01*
X228800000Y-119700000D02*
X226200000Y-119700000D01*
X232500000Y-112500000D02*
X232500000Y-113500000D01*
X233000000Y-113000000D02*
X232000000Y-113000000D01*
X233800000Y-119700000D02*
X231200000Y-119700000D01*
X236300000Y-105500000D02*
X236600000Y-105200000D01*
X236600000Y-105200000D02*
X236600000Y-105800000D01*
X236600000Y-105800000D02*
X236300000Y-105500000D01*
X238800000Y-106300000D02*
X236300000Y-106300000D01*
X238800000Y-111100000D02*
X238800000Y-106300000D01*
X238800000Y-114800000D02*
X238800000Y-119700000D01*
X238800000Y-119700000D02*
X236200000Y-119700000D01*
X235500000Y-113000000D02*
G75*
G02*
X229500000Y-113000000I-3000000J0D01*
G01*
X229500000Y-113000000D02*
G75*
G02*
X235500000Y-113000000I3000000J0D01*
G01*
%TO.C,R9*%
X210577064Y-61700000D02*
X209122936Y-61700000D01*
X210577064Y-63520000D02*
X209122936Y-63520000D01*
%TO.C,J4*%
X200590000Y-51330000D02*
X200590000Y-50000000D01*
X201920000Y-51330000D02*
X200590000Y-51330000D01*
X203190000Y-48670000D02*
X208330000Y-48670000D01*
X203190000Y-51330000D02*
X203190000Y-48670000D01*
X203190000Y-51330000D02*
X208330000Y-51330000D01*
X208330000Y-51330000D02*
X208330000Y-48670000D01*
%TO.C,R15*%
X194427064Y-87910000D02*
X192972936Y-87910000D01*
X194427064Y-89730000D02*
X192972936Y-89730000D01*
%TO.C,R4*%
X200522936Y-64990000D02*
X201977064Y-64990000D01*
X200522936Y-66810000D02*
X201977064Y-66810000D01*
%TO.C,C9*%
X170160000Y-90200000D02*
X168929000Y-90200000D01*
X170160000Y-90240000D02*
X168933000Y-90240000D01*
X170160000Y-90280000D02*
X168938000Y-90280000D01*
X170160000Y-90320000D02*
X168944000Y-90320000D01*
X170160000Y-90360000D02*
X168950000Y-90360000D01*
X170160000Y-90400000D02*
X168958000Y-90400000D01*
X170160000Y-90440000D02*
X168966000Y-90440000D01*
X170160000Y-90480000D02*
X168975000Y-90480000D01*
X170160000Y-90520000D02*
X168984000Y-90520000D01*
X170160000Y-90560000D02*
X168995000Y-90560000D01*
X170160000Y-90600000D02*
X169006000Y-90600000D01*
X170160000Y-90640000D02*
X169018000Y-90640000D01*
X170160000Y-90680000D02*
X169032000Y-90680000D01*
X170160000Y-90721000D02*
X169046000Y-90721000D01*
X170160000Y-90761000D02*
X169060000Y-90761000D01*
X170160000Y-90801000D02*
X169076000Y-90801000D01*
X170160000Y-90841000D02*
X169093000Y-90841000D01*
X170160000Y-90881000D02*
X169111000Y-90881000D01*
X170160000Y-90921000D02*
X169130000Y-90921000D01*
X170160000Y-90961000D02*
X169149000Y-90961000D01*
X170160000Y-91001000D02*
X169170000Y-91001000D01*
X170160000Y-91041000D02*
X169192000Y-91041000D01*
X170160000Y-91081000D02*
X169215000Y-91081000D01*
X170160000Y-91121000D02*
X169240000Y-91121000D01*
X170160000Y-91161000D02*
X169265000Y-91161000D01*
X170160000Y-91201000D02*
X169292000Y-91201000D01*
X170160000Y-91241000D02*
X169320000Y-91241000D01*
X170160000Y-91281000D02*
X169350000Y-91281000D01*
X170160000Y-91321000D02*
X169381000Y-91321000D01*
X170160000Y-91361000D02*
X169413000Y-91361000D01*
X170160000Y-91401000D02*
X169448000Y-91401000D01*
X170160000Y-91441000D02*
X169484000Y-91441000D01*
X170160000Y-91481000D02*
X169522000Y-91481000D01*
X170160000Y-91521000D02*
X169562000Y-91521000D01*
X170160000Y-91561000D02*
X169604000Y-91561000D01*
X170160000Y-91601000D02*
X169649000Y-91601000D01*
X170160000Y-91641000D02*
X169696000Y-91641000D01*
X170160000Y-91681000D02*
X169746000Y-91681000D01*
X170160000Y-91721000D02*
X169800000Y-91721000D01*
X170160000Y-91761000D02*
X169858000Y-91761000D01*
X170160000Y-91801000D02*
X169920000Y-91801000D01*
X171370000Y-92081000D02*
X170630000Y-92081000D01*
X171537000Y-92041000D02*
X170463000Y-92041000D01*
X171664000Y-92001000D02*
X170336000Y-92001000D01*
X171768000Y-91961000D02*
X170232000Y-91961000D01*
X171859000Y-91921000D02*
X170141000Y-91921000D01*
X171940000Y-91881000D02*
X170060000Y-91881000D01*
X172013000Y-91841000D02*
X169987000Y-91841000D01*
X172080000Y-91801000D02*
X171840000Y-91801000D01*
X172142000Y-91761000D02*
X171840000Y-91761000D01*
X172195000Y-87730199D02*
X172195000Y-88130199D01*
X172200000Y-91721000D02*
X171840000Y-91721000D01*
X172254000Y-91681000D02*
X171840000Y-91681000D01*
X172304000Y-91641000D02*
X171840000Y-91641000D01*
X172351000Y-91601000D02*
X171840000Y-91601000D01*
X172395000Y-87930199D02*
X171995000Y-87930199D01*
X172396000Y-91561000D02*
X171840000Y-91561000D01*
X172438000Y-91521000D02*
X171840000Y-91521000D01*
X172478000Y-91481000D02*
X171840000Y-91481000D01*
X172516000Y-91441000D02*
X171840000Y-91441000D01*
X172552000Y-91401000D02*
X171840000Y-91401000D01*
X172587000Y-91361000D02*
X171840000Y-91361000D01*
X172619000Y-91321000D02*
X171840000Y-91321000D01*
X172650000Y-91281000D02*
X171840000Y-91281000D01*
X172680000Y-91241000D02*
X171840000Y-91241000D01*
X172708000Y-91201000D02*
X171840000Y-91201000D01*
X172735000Y-91161000D02*
X171840000Y-91161000D01*
X172760000Y-91121000D02*
X171840000Y-91121000D01*
X172785000Y-91081000D02*
X171840000Y-91081000D01*
X172808000Y-91041000D02*
X171840000Y-91041000D01*
X172830000Y-91001000D02*
X171840000Y-91001000D01*
X172851000Y-90961000D02*
X171840000Y-90961000D01*
X172870000Y-90921000D02*
X171840000Y-90921000D01*
X172889000Y-90881000D02*
X171840000Y-90881000D01*
X172907000Y-90841000D02*
X171840000Y-90841000D01*
X172924000Y-90801000D02*
X171840000Y-90801000D01*
X172940000Y-90761000D02*
X171840000Y-90761000D01*
X172954000Y-90721000D02*
X171840000Y-90721000D01*
X172968000Y-90680000D02*
X171840000Y-90680000D01*
X172982000Y-90640000D02*
X171840000Y-90640000D01*
X172994000Y-90600000D02*
X171840000Y-90600000D01*
X173005000Y-90560000D02*
X171840000Y-90560000D01*
X173016000Y-90520000D02*
X171840000Y-90520000D01*
X173025000Y-90480000D02*
X171840000Y-90480000D01*
X173034000Y-90440000D02*
X171840000Y-90440000D01*
X173042000Y-90400000D02*
X171840000Y-90400000D01*
X173050000Y-90360000D02*
X171840000Y-90360000D01*
X173056000Y-90320000D02*
X171840000Y-90320000D01*
X173062000Y-90280000D02*
X171840000Y-90280000D01*
X173067000Y-90240000D02*
X171840000Y-90240000D01*
X173071000Y-90200000D02*
X171840000Y-90200000D01*
X173074000Y-90160000D02*
X168926000Y-90160000D01*
X173077000Y-90120000D02*
X168923000Y-90120000D01*
X173079000Y-90080000D02*
X168921000Y-90080000D01*
X173080000Y-90000000D02*
X168920000Y-90000000D01*
X173080000Y-90040000D02*
X168920000Y-90040000D01*
X173120000Y-90000000D02*
G75*
G02*
X168880000Y-90000000I-2120000J0D01*
G01*
X168880000Y-90000000D02*
G75*
G02*
X173120000Y-90000000I2120000J0D01*
G01*
%TO.C,J1*%
X150200000Y-112442500D02*
X164900000Y-112442500D01*
X150200000Y-121642500D02*
X150200000Y-112442500D01*
X159000000Y-121642500D02*
X150200000Y-121642500D01*
X164050000Y-112242500D02*
X165100000Y-112242500D01*
X164900000Y-112442500D02*
X164900000Y-115042500D01*
X164900000Y-118942500D02*
X164900000Y-121642500D01*
X164900000Y-121642500D02*
X163000000Y-121642500D01*
X165100000Y-113292500D02*
X165100000Y-112242500D01*
%TO.C,C1*%
X200501248Y-68165000D02*
X201023752Y-68165000D01*
X200501248Y-69635000D02*
X201023752Y-69635000D01*
%TO.C,R11*%
X194427064Y-74240000D02*
X192972936Y-74240000D01*
X194427064Y-76060000D02*
X192972936Y-76060000D01*
%TO.C,C5*%
X167120000Y-106250000D02*
G75*
G02*
X158880000Y-106250000I-4120000J0D01*
G01*
X158880000Y-106250000D02*
G75*
G02*
X167120000Y-106250000I4120000J0D01*
G01*
%TO.C,R7*%
X216977064Y-82990000D02*
X215522936Y-82990000D01*
X216977064Y-84810000D02*
X215522936Y-84810000D01*
%TO.C,R1*%
X218477064Y-64990000D02*
X217022936Y-64990000D01*
X218477064Y-66810000D02*
X217022936Y-66810000D01*
%TO.C,C12*%
X208498752Y-83165000D02*
X207976248Y-83165000D01*
X208498752Y-84635000D02*
X207976248Y-84635000D01*
%TO.C,R3*%
X200522936Y-61700000D02*
X201977064Y-61700000D01*
X200522936Y-63520000D02*
X201977064Y-63520000D01*
%TO.C,C11*%
X215426248Y-74665000D02*
X215948752Y-74665000D01*
X215426248Y-76135000D02*
X215948752Y-76135000D01*
%TO.C,C7*%
X153660000Y-90200000D02*
X152429000Y-90200000D01*
X153660000Y-90240000D02*
X152433000Y-90240000D01*
X153660000Y-90280000D02*
X152438000Y-90280000D01*
X153660000Y-90320000D02*
X152444000Y-90320000D01*
X153660000Y-90360000D02*
X152450000Y-90360000D01*
X153660000Y-90400000D02*
X152458000Y-90400000D01*
X153660000Y-90440000D02*
X152466000Y-90440000D01*
X153660000Y-90480000D02*
X152475000Y-90480000D01*
X153660000Y-90520000D02*
X152484000Y-90520000D01*
X153660000Y-90560000D02*
X152495000Y-90560000D01*
X153660000Y-90600000D02*
X152506000Y-90600000D01*
X153660000Y-90640000D02*
X152518000Y-90640000D01*
X153660000Y-90680000D02*
X152532000Y-90680000D01*
X153660000Y-90721000D02*
X152546000Y-90721000D01*
X153660000Y-90761000D02*
X152560000Y-90761000D01*
X153660000Y-90801000D02*
X152576000Y-90801000D01*
X153660000Y-90841000D02*
X152593000Y-90841000D01*
X153660000Y-90881000D02*
X152611000Y-90881000D01*
X153660000Y-90921000D02*
X152630000Y-90921000D01*
X153660000Y-90961000D02*
X152649000Y-90961000D01*
X153660000Y-91001000D02*
X152670000Y-91001000D01*
X153660000Y-91041000D02*
X152692000Y-91041000D01*
X153660000Y-91081000D02*
X152715000Y-91081000D01*
X153660000Y-91121000D02*
X152740000Y-91121000D01*
X153660000Y-91161000D02*
X152765000Y-91161000D01*
X153660000Y-91201000D02*
X152792000Y-91201000D01*
X153660000Y-91241000D02*
X152820000Y-91241000D01*
X153660000Y-91281000D02*
X152850000Y-91281000D01*
X153660000Y-91321000D02*
X152881000Y-91321000D01*
X153660000Y-91361000D02*
X152913000Y-91361000D01*
X153660000Y-91401000D02*
X152948000Y-91401000D01*
X153660000Y-91441000D02*
X152984000Y-91441000D01*
X153660000Y-91481000D02*
X153022000Y-91481000D01*
X153660000Y-91521000D02*
X153062000Y-91521000D01*
X153660000Y-91561000D02*
X153104000Y-91561000D01*
X153660000Y-91601000D02*
X153149000Y-91601000D01*
X153660000Y-91641000D02*
X153196000Y-91641000D01*
X153660000Y-91681000D02*
X153246000Y-91681000D01*
X153660000Y-91721000D02*
X153300000Y-91721000D01*
X153660000Y-91761000D02*
X153358000Y-91761000D01*
X153660000Y-91801000D02*
X153420000Y-91801000D01*
X154870000Y-92081000D02*
X154130000Y-92081000D01*
X155037000Y-92041000D02*
X153963000Y-92041000D01*
X155164000Y-92001000D02*
X153836000Y-92001000D01*
X155268000Y-91961000D02*
X153732000Y-91961000D01*
X155359000Y-91921000D02*
X153641000Y-91921000D01*
X155440000Y-91881000D02*
X153560000Y-91881000D01*
X155513000Y-91841000D02*
X153487000Y-91841000D01*
X155580000Y-91801000D02*
X155340000Y-91801000D01*
X155642000Y-91761000D02*
X155340000Y-91761000D01*
X155695000Y-87730199D02*
X155695000Y-88130199D01*
X155700000Y-91721000D02*
X155340000Y-91721000D01*
X155754000Y-91681000D02*
X155340000Y-91681000D01*
X155804000Y-91641000D02*
X155340000Y-91641000D01*
X155851000Y-91601000D02*
X155340000Y-91601000D01*
X155895000Y-87930199D02*
X155495000Y-87930199D01*
X155896000Y-91561000D02*
X155340000Y-91561000D01*
X155938000Y-91521000D02*
X155340000Y-91521000D01*
X155978000Y-91481000D02*
X155340000Y-91481000D01*
X156016000Y-91441000D02*
X155340000Y-91441000D01*
X156052000Y-91401000D02*
X155340000Y-91401000D01*
X156087000Y-91361000D02*
X155340000Y-91361000D01*
X156119000Y-91321000D02*
X155340000Y-91321000D01*
X156150000Y-91281000D02*
X155340000Y-91281000D01*
X156180000Y-91241000D02*
X155340000Y-91241000D01*
X156208000Y-91201000D02*
X155340000Y-91201000D01*
X156235000Y-91161000D02*
X155340000Y-91161000D01*
X156260000Y-91121000D02*
X155340000Y-91121000D01*
X156285000Y-91081000D02*
X155340000Y-91081000D01*
X156308000Y-91041000D02*
X155340000Y-91041000D01*
X156330000Y-91001000D02*
X155340000Y-91001000D01*
X156351000Y-90961000D02*
X155340000Y-90961000D01*
X156370000Y-90921000D02*
X155340000Y-90921000D01*
X156389000Y-90881000D02*
X155340000Y-90881000D01*
X156407000Y-90841000D02*
X155340000Y-90841000D01*
X156424000Y-90801000D02*
X155340000Y-90801000D01*
X156440000Y-90761000D02*
X155340000Y-90761000D01*
X156454000Y-90721000D02*
X155340000Y-90721000D01*
X156468000Y-90680000D02*
X155340000Y-90680000D01*
X156482000Y-90640000D02*
X155340000Y-90640000D01*
X156494000Y-90600000D02*
X155340000Y-90600000D01*
X156505000Y-90560000D02*
X155340000Y-90560000D01*
X156516000Y-90520000D02*
X155340000Y-90520000D01*
X156525000Y-90480000D02*
X155340000Y-90480000D01*
X156534000Y-90440000D02*
X155340000Y-90440000D01*
X156542000Y-90400000D02*
X155340000Y-90400000D01*
X156550000Y-90360000D02*
X155340000Y-90360000D01*
X156556000Y-90320000D02*
X155340000Y-90320000D01*
X156562000Y-90280000D02*
X155340000Y-90280000D01*
X156567000Y-90240000D02*
X155340000Y-90240000D01*
X156571000Y-90200000D02*
X155340000Y-90200000D01*
X156574000Y-90160000D02*
X152426000Y-90160000D01*
X156577000Y-90120000D02*
X152423000Y-90120000D01*
X156579000Y-90080000D02*
X152421000Y-90080000D01*
X156580000Y-90000000D02*
X152420000Y-90000000D01*
X156580000Y-90040000D02*
X152420000Y-90040000D01*
X156620000Y-90000000D02*
G75*
G02*
X152380000Y-90000000I-2120000J0D01*
G01*
X152380000Y-90000000D02*
G75*
G02*
X156620000Y-90000000I2120000J0D01*
G01*
%TO.C,C10*%
X170248752Y-85765000D02*
X169726248Y-85765000D01*
X170248752Y-87235000D02*
X169726248Y-87235000D01*
%TO.C,SW2*%
X177390000Y-106640000D02*
X179900000Y-106640000D01*
X177390000Y-118860000D02*
X177390000Y-106640000D01*
X177390000Y-118860000D02*
X179900000Y-118860000D01*
X182200000Y-106640000D02*
X184800000Y-106640000D01*
X182200000Y-118860000D02*
X184800000Y-118860000D01*
X187100000Y-106640000D02*
X189610000Y-106640000D01*
X187100000Y-118860000D02*
X189610000Y-118860000D01*
X189610000Y-106640000D02*
X189610000Y-118860000D01*
X187050000Y-112750000D02*
G75*
G02*
X179950000Y-112750000I-3550000J0D01*
G01*
X179950000Y-112750000D02*
G75*
G02*
X187050000Y-112750000I3550000J0D01*
G01*
%TO.C,R10*%
X206922936Y-86490000D02*
X208377064Y-86490000D01*
X206922936Y-88310000D02*
X208377064Y-88310000D01*
%TO.C,R8*%
X210577064Y-64990000D02*
X209122936Y-64990000D01*
X210577064Y-66810000D02*
X209122936Y-66810000D01*
%TO.C,C2*%
X215501248Y-86665000D02*
X216023752Y-86665000D01*
X215501248Y-88135000D02*
X216023752Y-88135000D01*
%TO.C,SW4*%
X193890000Y-106640000D02*
X196400000Y-106640000D01*
X193890000Y-118860000D02*
X193890000Y-106640000D01*
X193890000Y-118860000D02*
X196400000Y-118860000D01*
X198700000Y-106640000D02*
X201300000Y-106640000D01*
X198700000Y-118860000D02*
X201300000Y-118860000D01*
X203600000Y-106640000D02*
X206110000Y-106640000D01*
X203600000Y-118860000D02*
X206110000Y-118860000D01*
X206110000Y-106640000D02*
X206110000Y-118860000D01*
X203550000Y-112750000D02*
G75*
G02*
X196450000Y-112750000I-3550000J0D01*
G01*
X196450000Y-112750000D02*
G75*
G02*
X203550000Y-112750000I3550000J0D01*
G01*
%TO.C,U3*%
X159940000Y-87590000D02*
X159940000Y-88850000D01*
X159940000Y-94410000D02*
X159940000Y-93150000D01*
X163700000Y-87590000D02*
X159940000Y-87590000D01*
X163700000Y-94410000D02*
X159940000Y-94410000D01*
X165220000Y-94640000D02*
X164740000Y-94640000D01*
X164980000Y-94310000D01*
X165220000Y-94640000D01*
G36*
X165220000Y-94640000D02*
G01*
X164740000Y-94640000D01*
X164980000Y-94310000D01*
X165220000Y-94640000D01*
G37*
%TO.C,J6*%
X150690000Y-101380000D02*
X150690000Y-111540000D01*
X150690000Y-111540000D02*
X158310000Y-111540000D01*
X151960000Y-111540000D02*
X151960000Y-101380000D01*
X158310000Y-101380000D02*
X150690000Y-101380000D01*
X158310000Y-111540000D02*
X158310000Y-101380000D01*
%TO.C,D1*%
X169865000Y-120412500D02*
X169865000Y-124472500D01*
X169865000Y-124472500D02*
X172135000Y-124472500D01*
X172135000Y-124472500D02*
X172135000Y-120412500D01*
%TO.C,D3*%
X166365000Y-120412500D02*
X166365000Y-124472500D01*
X166365000Y-124472500D02*
X168635000Y-124472500D01*
X168635000Y-124472500D02*
X168635000Y-120412500D01*
%TO.C,C13*%
X182701248Y-96265000D02*
X183223752Y-96265000D01*
X182701248Y-97735000D02*
X183223752Y-97735000D01*
%TO.C,C8*%
X153748752Y-85765000D02*
X153226248Y-85765000D01*
X153748752Y-87235000D02*
X153226248Y-87235000D01*
%TO.C,J2*%
X180670000Y-67650000D02*
X182000000Y-67650000D01*
X180670000Y-68980000D02*
X180670000Y-67650000D01*
X180670000Y-70250000D02*
X180670000Y-77930000D01*
X180670000Y-70250000D02*
X183330000Y-70250000D01*
X180670000Y-77930000D02*
X183330000Y-77930000D01*
X183330000Y-70250000D02*
X183330000Y-77930000D01*
%TO.C,C3*%
X209013748Y-68165000D02*
X209536252Y-68165000D01*
X209013748Y-69635000D02*
X209536252Y-69635000D01*
%TO.C,R12*%
X194427064Y-77740000D02*
X192972936Y-77740000D01*
X194427064Y-79560000D02*
X192972936Y-79560000D01*
%TO.C,L1*%
X216061252Y-77490000D02*
X215538748Y-77490000D01*
X216061252Y-79710000D02*
X215538748Y-79710000D01*
%TO.C,J3*%
X187050000Y-51330000D02*
X187050000Y-50000000D01*
X188380000Y-51330000D02*
X187050000Y-51330000D01*
X189650000Y-48670000D02*
X197330000Y-48670000D01*
X189650000Y-51330000D02*
X189650000Y-48670000D01*
X189650000Y-51330000D02*
X197330000Y-51330000D01*
X197330000Y-51330000D02*
X197330000Y-48670000D01*
%TO.C,J5*%
X241250000Y-120600000D02*
X241250000Y-121850000D01*
X241250000Y-121850000D02*
X242500000Y-121850000D01*
X241540000Y-103940000D02*
X241540000Y-121560000D01*
X241540000Y-121560000D02*
X247510000Y-121560000D01*
X241550000Y-103950000D02*
X241550000Y-105750000D01*
X241550000Y-105750000D02*
X242300000Y-105750000D01*
X241550000Y-107250000D02*
X241550000Y-118250000D01*
X241550000Y-118250000D02*
X242300000Y-118250000D01*
X241550000Y-119750000D02*
X241550000Y-121550000D01*
X241550000Y-121550000D02*
X242300000Y-121550000D01*
X242300000Y-103950000D02*
X241550000Y-103950000D01*
X242300000Y-105750000D02*
X242300000Y-103950000D01*
X242300000Y-107250000D02*
X241550000Y-107250000D01*
X242300000Y-118250000D02*
X242300000Y-107250000D01*
X242300000Y-119750000D02*
X241550000Y-119750000D01*
X242300000Y-121550000D02*
X242300000Y-119750000D01*
X243800000Y-103950000D02*
X243800000Y-104700000D01*
X243800000Y-104700000D02*
X246750000Y-104700000D01*
X243800000Y-120800000D02*
X246750000Y-120800000D01*
X243800000Y-121550000D02*
X243800000Y-120800000D01*
X246750000Y-104700000D02*
X246750000Y-112750000D01*
X246750000Y-120800000D02*
X246750000Y-112750000D01*
X247510000Y-103940000D02*
X241540000Y-103940000D01*
X247510000Y-121560000D02*
X247510000Y-103940000D01*
%TO.C,C6*%
X164298752Y-96265000D02*
X163776248Y-96265000D01*
X164298752Y-97735000D02*
X163776248Y-97735000D01*
%TO.C,U4*%
X176440000Y-87390000D02*
X176440000Y-88650000D01*
X176440000Y-94210000D02*
X176440000Y-92950000D01*
X180200000Y-87390000D02*
X176440000Y-87390000D01*
X180200000Y-94210000D02*
X176440000Y-94210000D01*
X181720000Y-94440000D02*
X181240000Y-94440000D01*
X181480000Y-94110000D01*
X181720000Y-94440000D01*
G36*
X181720000Y-94440000D02*
G01*
X181240000Y-94440000D01*
X181480000Y-94110000D01*
X181720000Y-94440000D01*
G37*
%TO.C,C4*%
X209018748Y-58765000D02*
X209541252Y-58765000D01*
X209018748Y-60235000D02*
X209541252Y-60235000D01*
%TO.C,R13*%
X194427064Y-91200000D02*
X192972936Y-91200000D01*
X194427064Y-93020000D02*
X192972936Y-93020000D01*
%TO.C,R6*%
X192972936Y-84740000D02*
X194427064Y-84740000D01*
X192972936Y-86560000D02*
X194427064Y-86560000D01*
%TO.C,D2*%
X173365000Y-120412500D02*
X173365000Y-124472500D01*
X173365000Y-124472500D02*
X175635000Y-124472500D01*
X175635000Y-124472500D02*
X175635000Y-120412500D01*
%TO.C,R2*%
X218477064Y-61700000D02*
X217022936Y-61700000D01*
X218477064Y-63520000D02*
X217022936Y-63520000D01*
%TO.C,U2*%
X192525000Y-67955000D02*
X190575000Y-67955000D01*
X192525000Y-67955000D02*
X194475000Y-67955000D01*
X192525000Y-73075000D02*
X190575000Y-73075000D01*
X192525000Y-73075000D02*
X194475000Y-73075000D01*
X189825000Y-68050000D02*
X189585000Y-67720000D01*
X190065000Y-67720000D01*
X189825000Y-68050000D01*
G36*
X189825000Y-68050000D02*
G01*
X189585000Y-67720000D01*
X190065000Y-67720000D01*
X189825000Y-68050000D01*
G37*
%TO.C,R14*%
X194427064Y-94490000D02*
X192972936Y-94490000D01*
X194427064Y-96310000D02*
X192972936Y-96310000D01*
%TO.C,R5*%
X192972936Y-81375000D02*
X194427064Y-81375000D01*
X192972936Y-83195000D02*
X194427064Y-83195000D01*
%TO.C,U1*%
X200515000Y-72990000D02*
X200515000Y-73290000D01*
X200515000Y-80210000D02*
X200515000Y-79910000D01*
X200815000Y-72990000D02*
X200515000Y-72990000D01*
X200815000Y-80210000D02*
X200515000Y-80210000D01*
X207435000Y-72990000D02*
X207735000Y-72990000D01*
X207435000Y-80210000D02*
X207735000Y-80210000D01*
X207735000Y-72990000D02*
X207735000Y-73290000D01*
X207735000Y-80210000D02*
X207735000Y-79910000D01*
X208677500Y-80380000D02*
X207997500Y-80380000D01*
X208337500Y-79910000D01*
X208677500Y-80380000D01*
G36*
X208677500Y-80380000D02*
G01*
X207997500Y-80380000D01*
X208337500Y-79910000D01*
X208677500Y-80380000D01*
G37*
%TD*%
M02*
