%TF.GenerationSoftware,KiCad,Pcbnew,8.0.4*%
%TF.CreationDate,2024-08-20T10:11:57+03:00*%
%TF.ProjectId,stm32f030k6t6,73746d33-3266-4303-9330-6b3674362e6b,rev?*%
%TF.SameCoordinates,Original*%
%TF.FileFunction,Paste,Top*%
%TF.FilePolarity,Positive*%
%FSLAX46Y46*%
G04 Gerber Fmt 4.6, Leading zero omitted, Abs format (unit mm)*
G04 Created by KiCad (PCBNEW 8.0.4) date 2024-08-20 10:11:57*
%MOMM*%
%LPD*%
G01*
G04 APERTURE LIST*
G04 Aperture macros list*
%AMRoundRect*
0 Rectangle with rounded corners*
0 $1 Rounding radius*
0 $2 $3 $4 $5 $6 $7 $8 $9 X,Y pos of 4 corners*
0 Add a 4 corners polygon primitive as box body*
4,1,4,$2,$3,$4,$5,$6,$7,$8,$9,$2,$3,0*
0 Add four circle primitives for the rounded corners*
1,1,$1+$1,$2,$3*
1,1,$1+$1,$4,$5*
1,1,$1+$1,$6,$7*
1,1,$1+$1,$8,$9*
0 Add four rect primitives between the rounded corners*
20,1,$1+$1,$2,$3,$4,$5,0*
20,1,$1+$1,$4,$5,$6,$7,0*
20,1,$1+$1,$6,$7,$8,$9,0*
20,1,$1+$1,$8,$9,$2,$3,0*%
G04 Aperture macros list end*
%ADD10RoundRect,0.250000X0.400000X0.625000X-0.400000X0.625000X-0.400000X-0.625000X0.400000X-0.625000X0*%
%ADD11RoundRect,0.250000X-0.400000X-0.625000X0.400000X-0.625000X0.400000X0.625000X-0.400000X0.625000X0*%
%ADD12RoundRect,0.250000X-0.337500X-0.475000X0.337500X-0.475000X0.337500X0.475000X-0.337500X0.475000X0*%
%ADD13RoundRect,0.250000X0.337500X0.475000X-0.337500X0.475000X-0.337500X-0.475000X0.337500X-0.475000X0*%
%ADD14RoundRect,0.375000X0.625000X0.375000X-0.625000X0.375000X-0.625000X-0.375000X0.625000X-0.375000X0*%
%ADD15RoundRect,0.500000X0.500000X1.400000X-0.500000X1.400000X-0.500000X-1.400000X0.500000X-1.400000X0*%
%ADD16RoundRect,0.250001X0.624999X-0.462499X0.624999X0.462499X-0.624999X0.462499X-0.624999X-0.462499X0*%
%ADD17RoundRect,0.250000X0.375000X0.850000X-0.375000X0.850000X-0.375000X-0.850000X0.375000X-0.850000X0*%
%ADD18RoundRect,0.150000X-0.825000X-0.150000X0.825000X-0.150000X0.825000X0.150000X-0.825000X0.150000X0*%
%ADD19RoundRect,0.125000X0.625000X0.125000X-0.625000X0.125000X-0.625000X-0.125000X0.625000X-0.125000X0*%
%ADD20RoundRect,0.125000X0.125000X0.625000X-0.125000X0.625000X-0.125000X-0.625000X0.125000X-0.625000X0*%
G04 APERTURE END LIST*
D10*
%TO.C,R9*%
X211400000Y-62610000D03*
X208300000Y-62610000D03*
%TD*%
%TO.C,R15*%
X195250000Y-88820000D03*
X192150000Y-88820000D03*
%TD*%
D11*
%TO.C,R4*%
X199700000Y-65900000D03*
X202800000Y-65900000D03*
%TD*%
D12*
%TO.C,C1*%
X199725000Y-68900000D03*
X201800000Y-68900000D03*
%TD*%
D10*
%TO.C,R11*%
X195250000Y-75150000D03*
X192150000Y-75150000D03*
%TD*%
%TO.C,R7*%
X217800000Y-83900000D03*
X214700000Y-83900000D03*
%TD*%
%TO.C,R1*%
X219300000Y-65900000D03*
X216200000Y-65900000D03*
%TD*%
D13*
%TO.C,C12*%
X209275000Y-83900000D03*
X207200000Y-83900000D03*
%TD*%
D11*
%TO.C,R3*%
X199700000Y-62610000D03*
X202800000Y-62610000D03*
%TD*%
D12*
%TO.C,C11*%
X214650000Y-75400000D03*
X216725000Y-75400000D03*
%TD*%
D13*
%TO.C,C10*%
X171025000Y-86500000D03*
X168950000Y-86500000D03*
%TD*%
D11*
%TO.C,R10*%
X206100000Y-87400000D03*
X209200000Y-87400000D03*
%TD*%
D10*
%TO.C,R8*%
X211400000Y-65900000D03*
X208300000Y-65900000D03*
%TD*%
D12*
%TO.C,C2*%
X214725000Y-87400000D03*
X216800000Y-87400000D03*
%TD*%
D14*
%TO.C,U3*%
X165000000Y-93300000D03*
X165000000Y-91000000D03*
D15*
X158700000Y-91000000D03*
D14*
X165000000Y-88700000D03*
%TD*%
D16*
%TO.C,D1*%
X171000000Y-123500000D03*
X171000000Y-120525000D03*
%TD*%
%TO.C,D3*%
X167500000Y-123500000D03*
X167500000Y-120525000D03*
%TD*%
D12*
%TO.C,C13*%
X181925000Y-97000000D03*
X184000000Y-97000000D03*
%TD*%
D13*
%TO.C,C8*%
X154525000Y-86500000D03*
X152450000Y-86500000D03*
%TD*%
D12*
%TO.C,C3*%
X208237500Y-68900000D03*
X210312500Y-68900000D03*
%TD*%
D10*
%TO.C,R12*%
X195250000Y-78650000D03*
X192150000Y-78650000D03*
%TD*%
D17*
%TO.C,L1*%
X216875000Y-78600000D03*
X214725000Y-78600000D03*
%TD*%
D13*
%TO.C,C6*%
X165075000Y-97000000D03*
X163000000Y-97000000D03*
%TD*%
D14*
%TO.C,U4*%
X181500000Y-93100000D03*
X181500000Y-90800000D03*
D15*
X175200000Y-90800000D03*
D14*
X181500000Y-88500000D03*
%TD*%
D12*
%TO.C,C4*%
X208242500Y-59500000D03*
X210317500Y-59500000D03*
%TD*%
D10*
%TO.C,R13*%
X195250000Y-92110000D03*
X192150000Y-92110000D03*
%TD*%
D11*
%TO.C,R6*%
X192150000Y-85650000D03*
X195250000Y-85650000D03*
%TD*%
D16*
%TO.C,D2*%
X174500000Y-123500000D03*
X174500000Y-120525000D03*
%TD*%
D10*
%TO.C,R2*%
X219300000Y-62610000D03*
X216200000Y-62610000D03*
%TD*%
D18*
%TO.C,U2*%
X190050000Y-68610000D03*
X190050000Y-69880000D03*
X190050000Y-71150000D03*
X190050000Y-72420000D03*
X195000000Y-72420000D03*
X195000000Y-71150000D03*
X195000000Y-69880000D03*
X195000000Y-68610000D03*
%TD*%
D10*
%TO.C,R14*%
X195250000Y-95400000D03*
X192150000Y-95400000D03*
%TD*%
D11*
%TO.C,R5*%
X192150000Y-82285000D03*
X195250000Y-82285000D03*
%TD*%
D19*
%TO.C,U1*%
X208300000Y-79400000D03*
X208300000Y-78600000D03*
X208300000Y-77800000D03*
X208300000Y-77000000D03*
X208300000Y-76200000D03*
X208300000Y-75400000D03*
X208300000Y-74600000D03*
X208300000Y-73800000D03*
D20*
X206925000Y-72425000D03*
X206125000Y-72425000D03*
X205325000Y-72425000D03*
X204525000Y-72425000D03*
X203725000Y-72425000D03*
X202925000Y-72425000D03*
X202125000Y-72425000D03*
X201325000Y-72425000D03*
D19*
X199950000Y-73800000D03*
X199950000Y-74600000D03*
X199950000Y-75400000D03*
X199950000Y-76200000D03*
X199950000Y-77000000D03*
X199950000Y-77800000D03*
X199950000Y-78600000D03*
X199950000Y-79400000D03*
D20*
X201325000Y-80775000D03*
X202125000Y-80775000D03*
X202925000Y-80775000D03*
X203725000Y-80775000D03*
X204525000Y-80775000D03*
X205325000Y-80775000D03*
X206125000Y-80775000D03*
X206925000Y-80775000D03*
%TD*%
M02*
