%TF.GenerationSoftware,KiCad,Pcbnew,8.0.4*%
%TF.CreationDate,2024-08-22T00:10:52+03:00*%
%TF.ProjectId,stm32f030k6t6,73746d33-3266-4303-9330-6b3674362e6b,rev?*%
%TF.SameCoordinates,Original*%
%TF.FileFunction,Plated,1,2,PTH,Mixed*%
%TF.FilePolarity,Positive*%
%FSLAX46Y46*%
G04 Gerber Fmt 4.6, Leading zero omitted, Abs format (unit mm)*
G04 Created by KiCad (PCBNEW 8.0.4) date 2024-08-22 00:10:52*
%MOMM*%
%LPD*%
G01*
G04 APERTURE LIST*
%TA.AperFunction,ViaDrill*%
%ADD10C,0.400000*%
%TD*%
%TA.AperFunction,ComponentDrill*%
%ADD11C,0.600000*%
%TD*%
%TA.AperFunction,ComponentDrill*%
%ADD12C,0.800000*%
%TD*%
%TA.AperFunction,ComponentDrill*%
%ADD13C,0.950000*%
%TD*%
G04 aperture for slot hole*
%TA.AperFunction,ComponentDrill*%
%ADD14C,1.000000*%
%TD*%
%TA.AperFunction,ComponentDrill*%
%ADD15C,1.000000*%
%TD*%
%TA.AperFunction,ComponentDrill*%
%ADD16C,1.300000*%
%TD*%
%TA.AperFunction,ComponentDrill*%
%ADD17C,1.520000*%
%TD*%
G04 aperture for slot hole*
%TA.AperFunction,ComponentDrill*%
%ADD18C,2.000000*%
%TD*%
G04 APERTURE END LIST*
D10*
X167400000Y-116600000D03*
X171000000Y-116600000D03*
X174500000Y-116600000D03*
X183800000Y-100000000D03*
X183800000Y-101400000D03*
X183800000Y-102900000D03*
X193200000Y-72600000D03*
X196500000Y-75400000D03*
X196800000Y-82285000D03*
X197500000Y-74500000D03*
X198200000Y-85650000D03*
X198500000Y-68800000D03*
X198500000Y-79200000D03*
X200000000Y-80800000D03*
X201900000Y-78700000D03*
X202200000Y-74900000D03*
X203200000Y-77200000D03*
X206200000Y-59600000D03*
X206500000Y-67900000D03*
X207200000Y-60900000D03*
X208100000Y-70700000D03*
X208200000Y-81500000D03*
X211200000Y-77900000D03*
X211200000Y-79300000D03*
X212300000Y-76900000D03*
X213000000Y-62610000D03*
X213000000Y-65900000D03*
X219300000Y-67700000D03*
X219300000Y-74800000D03*
X219800000Y-83900000D03*
X223344975Y-80000000D03*
X224672793Y-80000000D03*
X226000000Y-80000000D03*
D11*
%TO.C,C7*%
X154500000Y-89000000D03*
X154500000Y-91000000D03*
%TO.C,C9*%
X171000000Y-89000000D03*
X171000000Y-91000000D03*
D12*
%TO.C,C5*%
X163000000Y-104500000D03*
X163000000Y-108000000D03*
D13*
%TO.C,J5*%
X244000000Y-106500000D03*
X244000000Y-109000000D03*
X244000000Y-111500000D03*
X244000000Y-114000000D03*
X244000000Y-116500000D03*
X244000000Y-119000000D03*
D14*
%TO.C,J1*%
X158000000Y-118042500D02*
X158000000Y-116042500D01*
X162000000Y-121742500D02*
X160000000Y-121742500D01*
X164000000Y-118042500D02*
X164000000Y-116042500D01*
D15*
%TO.C,J2*%
X182000000Y-68980000D03*
X182000000Y-71520000D03*
X182000000Y-74060000D03*
X182000000Y-76600000D03*
%TO.C,J3*%
X188380000Y-50000000D03*
X190920000Y-50000000D03*
X193460000Y-50000000D03*
X196000000Y-50000000D03*
%TO.C,J4*%
X201920000Y-50000000D03*
X204460000Y-50000000D03*
X207000000Y-50000000D03*
%TO.C,SW1*%
X230000000Y-105500000D03*
X230000000Y-120000000D03*
X232500000Y-105500000D03*
X235000000Y-105500000D03*
X235000000Y-120000000D03*
%TO.C,TP3*%
X240000000Y-63900000D03*
%TO.C,TP2*%
X240000000Y-68900000D03*
%TO.C,TP1*%
X240000000Y-73900000D03*
D16*
%TO.C,SW2*%
X181000000Y-106500000D03*
X181000000Y-119000000D03*
X186000000Y-106500000D03*
X186000000Y-119000000D03*
%TO.C,SW4*%
X197500000Y-106500000D03*
X197500000Y-119000000D03*
X202500000Y-106500000D03*
X202500000Y-119000000D03*
%TO.C,SW3*%
X214000000Y-106500000D03*
X214000000Y-119000000D03*
X219000000Y-106500000D03*
X219000000Y-119000000D03*
D17*
%TO.C,J6*%
X154500000Y-103920000D03*
X154500000Y-109000000D03*
D18*
%TO.C,SW1*%
X226900000Y-113250000D02*
X226900000Y-112750000D01*
X238100000Y-113250000D02*
X238100000Y-112750000D01*
M02*
